<?xml version="1.0" encoding="utf-8" standalone="no"?>
<!DOCTYPE svg PUBLIC "-//W3C//DTD SVG 1.1//EN"
  "http://www.w3.org/Graphics/SVG/1.1/DTD/svg11.dtd">
<svg xmlns:xlink="http://www.w3.org/1999/xlink" width="460.8pt" height="345.6pt" viewBox="0 0 460.8 345.6" xmlns="http://www.w3.org/2000/svg" version="1.1">
 <metadata>
  <rdf:RDF xmlns:dc="http://purl.org/dc/elements/1.1/" xmlns:cc="http://creativecommons.org/ns#" xmlns:rdf="http://www.w3.org/1999/02/22-rdf-syntax-ns#">
   <cc:Work>
    <dc:type rdf:resource="http://purl.org/dc/dcmitype/StillImage"/>
    <dc:date>2023-07-29T21:14:14.234565</dc:date>
    <dc:format>image/svg+xml</dc:format>
    <dc:creator>
     <cc:Agent>
      <dc:title>Matplotlib v3.7.2, https://matplotlib.org/</dc:title>
     </cc:Agent>
    </dc:creator>
   </cc:Work>
  </rdf:RDF>
 </metadata>
 <defs>
  <style type="text/css">*{stroke-linejoin: round; stroke-linecap: butt}</style>
 </defs>
 <g id="figure_1">
  <g id="patch_1">
   <path d="M 0 345.6 
L 460.8 345.6 
L 460.8 0 
L 0 0 
z
" style="fill: #ffffff; stroke: #000000; stroke-linejoin: miter"/>
  </g>
  <g id="axes_1">
   <g id="patch_2">
    <path d="M 57.6 307.584 
L 414.72 307.584 
L 414.72 41.472 
L 57.6 41.472 
z
" style="fill: #ffffff"/>
   </g>
   <g id="PolyCollection_1">
    <path d="M 57.6 307.584 
L 57.6 174.528 
L 107.2 174.528 
L 107.2 307.584 
L 107.2 307.584 
L 57.6 307.584 
z
" clip-path="url(#pb80c7eaf45)" style="fill: #000080; fill-opacity: 0.3; stroke: #000080; stroke-opacity: 0.3"/>
    <path d="M 116.128 307.584 
L 116.128 174.528 
L 116.3264 174.528 
L 116.5248 174.528 
L 116.7232 174.528 
L 116.9216 174.528 
L 117.12 174.528 
L 117.3184 174.528 
L 117.5168 174.528 
L 117.7152 174.528 
L 117.9136 174.528 
L 118.112 174.528 
L 118.3104 174.528 
L 118.5088 174.528 
L 118.9056 174.528 
L 119.104 174.528 
L 119.3024 174.528 
L 119.5008 174.528 
L 119.6992 174.528 
L 119.8976 174.528 
L 120.096 174.528 
L 120.2944 174.528 
L 120.4928 174.528 
L 120.6912 174.528 
L 120.8896 174.528 
L 121.088 174.528 
L 121.2864 174.528 
L 121.4848 174.528 
L 121.6832 174.528 
L 121.8816 174.528 
L 122.08 174.528 
L 122.2784 174.528 
L 122.4768 174.528 
L 122.8736 174.528 
L 123.072 174.528 
L 123.2704 174.528 
L 123.4688 174.528 
L 123.6672 174.528 
L 123.8656 174.528 
L 124.064 174.528 
L 124.2624 174.528 
L 124.4608 174.528 
L 124.6592 174.528 
L 124.8576 174.528 
L 125.056 174.528 
L 125.2544 174.528 
L 125.4528 174.528 
L 125.6512 174.528 
L 125.8496 174.528 
L 126.048 174.528 
L 126.4448 174.528 
L 126.6432 174.528 
L 126.8416 174.528 
L 127.04 174.528 
L 127.2384 174.528 
L 127.4368 174.528 
L 127.6352 174.528 
L 127.8336 174.528 
L 128.032 174.528 
L 128.2304 174.528 
L 128.4288 174.528 
L 128.6272 174.528 
L 128.8256 174.528 
L 129.024 174.528 
L 129.2224 174.528 
L 129.4208 174.528 
L 129.6192 174.528 
L 129.8176 174.528 
L 130.016 174.528 
L 130.2144 174.528 
L 130.6112 174.528 
L 130.8096 174.528 
L 131.008 174.528 
L 131.2064 174.528 
L 131.4048 174.528 
L 131.6032 174.528 
L 131.8016 174.528 
L 132 174.528 
L 132.1984 174.528 
L 132.3968 174.528 
L 132.5952 174.528 
L 132.7936 174.528 
L 132.992 174.528 
L 133.1904 174.528 
L 133.3888 174.528 
L 133.5872 174.528 
L 133.7856 174.528 
L 133.984 174.528 
L 134.3808 174.528 
L 134.5792 174.528 
L 134.5792 174.528 
L 134.976 174.528 
L 135.1744 174.528 
L 135.3728 174.528 
L 135.5712 174.528 
L 135.7696 174.528 
L 135.968 174.528 
L 136.1664 174.528 
L 136.3648 174.528 
L 136.5632 174.528 
L 136.7616 174.528 
L 136.96 174.528 
L 137.1584 174.528 
L 137.3568 174.528 
L 137.5552 174.528 
L 137.7536 174.528 
L 137.952 174.528 
L 138.3488 174.528 
L 138.5472 174.528 
L 138.7456 174.528 
L 138.944 174.528 
L 139.1424 174.528 
L 139.3408 174.528 
L 139.5392 174.528 
L 139.7376 174.528 
L 139.936 174.528 
L 140.1344 174.528 
L 140.3328 174.528 
L 140.5312 174.528 
L 140.7296 174.528 
L 140.928 174.528 
L 141.1264 174.528 
L 141.3248 174.528 
L 141.5232 174.528 
L 141.7216 174.528 
L 141.92 174.528 
L 142.3168 174.528 
L 142.5152 174.528 
L 142.7136 174.528 
L 142.912 174.528 
L 143.1104 174.528 
L 143.3088 174.528 
L 143.5072 174.528 
L 143.7056 174.528 
L 143.904 174.528 
L 144.1024 174.528 
L 144.3008 174.528 
L 144.4992 174.528 
L 144.6976 174.528 
L 144.896 174.528 
L 145.0944 174.528 
L 145.2928 174.528 
L 145.4912 174.528 
L 145.888 174.528 
L 146.0864 174.528 
L 146.2848 174.528 
L 146.4832 174.528 
L 146.6816 174.528 
L 146.88 174.528 
L 147.0784 174.528 
L 147.2768 174.528 
L 147.4752 174.528 
L 147.6736 174.528 
L 147.872 174.528 
L 148.0704 174.528 
L 148.2688 174.528 
L 148.4672 174.528 
L 148.6656 174.528 
L 148.864 174.528 
L 149.0624 174.528 
L 149.2608 174.528 
L 149.4592 174.528 
L 149.6576 174.528 
L 149.856 174.528 
L 150.2528 174.528 
L 150.4512 174.528 
L 150.6496 174.528 
L 150.848 174.528 
L 151.0464 174.528 
L 151.2448 174.528 
L 151.4432 174.528 
L 151.6416 174.528 
L 151.84 174.528 
L 152.0384 174.528 
L 152.2368 174.528 
L 152.4352 174.528 
L 152.6336 174.528 
L 152.832 174.528 
L 153.0304 174.528 
L 153.2288 174.528 
L 153.4272 174.528 
L 153.824 174.528 
L 154.0224 174.528 
L 154.2208 174.528 
L 154.4192 174.528 
L 154.6176 174.528 
L 154.816 174.528 
L 155.0144 174.528 
L 155.2128 174.528 
L 155.4112 174.528 
L 155.6096 174.528 
L 155.808 174.528 
L 156.0064 174.528 
L 156.2048 174.528 
L 156.4032 174.528 
L 156.6016 174.528 
L 156.8 174.528 
L 156.9984 174.528 
L 157.1968 174.528 
L 157.3952 174.528 
L 157.792 174.528 
L 157.792 174.528 
L 158.1888 174.528 
L 158.3872 174.528 
L 158.5856 174.528 
L 158.784 174.528 
L 158.9824 174.528 
L 159.1808 174.528 
L 159.3792 174.528 
L 159.5776 174.528 
L 159.776 174.528 
L 159.9744 174.528 
L 160.1728 174.528 
L 160.3712 174.528 
L 160.5696 174.528 
L 160.768 174.528 
L 160.9664 174.528 
L 161.1648 174.528 
L 161.3632 174.528 
L 161.76 174.528 
L 161.9584 174.528 
L 162.1568 174.528 
L 162.3552 174.528 
L 162.5536 174.528 
L 162.752 174.528 
L 162.9504 174.528 
L 163.1488 174.528 
L 163.3472 174.528 
L 163.5456 174.528 
L 163.744 174.528 
L 163.9424 174.528 
L 164.1408 174.528 
L 164.3392 174.528 
L 164.5376 174.528 
L 164.736 174.528 
L 164.9344 174.528 
L 165.3312 174.528 
L 165.5296 174.528 
L 165.728 174.528 
L 165.9264 174.528 
L 166.1248 174.528 
L 166.3232 174.528 
L 166.5216 174.528 
L 166.72 174.528 
L 166.9184 174.528 
L 167.1168 174.528 
L 167.3152 174.528 
L 167.5136 174.528 
L 167.712 174.528 
L 167.9104 174.528 
L 168.1088 174.528 
L 168.3072 174.528 
L 168.5056 174.528 
L 168.704 174.528 
L 168.9024 174.528 
L 169.1008 174.528 
L 169.2992 174.528 
L 169.696 174.528 
L 169.8944 174.528 
L 170.0928 174.528 
L 170.2912 174.528 
L 170.4896 174.528 
L 170.688 174.528 
L 170.8864 174.528 
L 171.0848 174.528 
L 171.2832 174.528 
L 171.4816 174.528 
L 171.68 174.528 
L 171.8784 174.528 
L 172.0768 174.528 
L 172.2752 174.528 
L 172.4736 174.528 
L 172.672 174.528 
L 172.8704 174.528 
L 173.2672 174.528 
L 173.4656 174.528 
L 173.664 174.528 
L 173.8624 174.528 
L 174.0608 174.528 
L 174.2592 174.528 
L 174.4576 174.528 
L 174.656 174.528 
L 174.8544 174.528 
L 175.0528 174.528 
L 175.2512 174.528 
L 175.4496 174.528 
L 175.648 174.528 
L 175.8464 174.528 
L 176.0448 174.528 
L 176.2432 174.528 
L 176.4416 174.528 
L 176.64 174.528 
L 176.8384 174.528 
L 177.0368 174.528 
L 177.4336 174.528 
L 177.632 174.528 
L 177.8304 174.528 
L 178.0288 174.528 
L 178.2272 174.528 
L 178.4256 174.528 
L 178.624 174.528 
L 178.8224 174.528 
L 179.0208 174.528 
L 179.2192 174.528 
L 179.2192 307.584 
L 179.2192 307.584 
L 179.0208 307.584 
L 178.8224 307.584 
L 178.624 307.584 
L 178.4256 307.584 
L 178.2272 307.584 
L 178.0288 307.584 
L 177.8304 307.584 
L 177.632 307.584 
L 177.4336 307.584 
L 177.0368 307.584 
L 176.8384 307.584 
L 176.64 307.584 
L 176.4416 307.584 
L 176.2432 307.584 
L 176.0448 307.584 
L 175.8464 307.584 
L 175.648 307.584 
L 175.4496 307.584 
L 175.2512 307.584 
L 175.0528 307.584 
L 174.8544 307.584 
L 174.656 307.584 
L 174.4576 307.584 
L 174.2592 307.584 
L 174.0608 307.584 
L 173.8624 307.584 
L 173.664 307.584 
L 173.4656 307.584 
L 173.2672 307.584 
L 172.8704 307.584 
L 172.672 307.584 
L 172.4736 307.584 
L 172.2752 307.584 
L 172.0768 307.584 
L 171.8784 307.584 
L 171.68 307.584 
L 171.4816 307.584 
L 171.2832 307.584 
L 171.0848 307.584 
L 170.8864 307.584 
L 170.688 307.584 
L 170.4896 307.584 
L 170.2912 307.584 
L 170.0928 307.584 
L 169.8944 307.584 
L 169.696 307.584 
L 169.2992 307.584 
L 169.1008 307.584 
L 168.9024 307.584 
L 168.704 307.584 
L 168.5056 307.584 
L 168.3072 307.584 
L 168.1088 307.584 
L 167.9104 307.584 
L 167.712 307.584 
L 167.5136 307.584 
L 167.3152 307.584 
L 167.1168 307.584 
L 166.9184 307.584 
L 166.72 307.584 
L 166.5216 307.584 
L 166.3232 307.584 
L 166.1248 307.584 
L 165.9264 307.584 
L 165.728 307.584 
L 165.5296 307.584 
L 165.3312 307.584 
L 164.9344 307.584 
L 164.736 307.584 
L 164.5376 307.584 
L 164.3392 307.584 
L 164.1408 307.584 
L 163.9424 307.584 
L 163.744 307.584 
L 163.5456 307.584 
L 163.3472 307.584 
L 163.1488 307.584 
L 162.9504 307.584 
L 162.752 307.584 
L 162.5536 307.584 
L 162.3552 307.584 
L 162.1568 307.584 
L 161.9584 307.584 
L 161.76 307.584 
L 161.3632 307.584 
L 161.1648 307.584 
L 160.9664 307.584 
L 160.768 307.584 
L 160.5696 307.584 
L 160.3712 307.584 
L 160.1728 307.584 
L 159.9744 307.584 
L 159.776 307.584 
L 159.5776 307.584 
L 159.3792 307.584 
L 159.1808 307.584 
L 158.9824 307.584 
L 158.784 307.584 
L 158.5856 307.584 
L 158.3872 307.584 
L 158.1888 307.584 
L 157.792 307.584 
L 157.792 307.584 
L 157.3952 307.584 
L 157.1968 307.584 
L 156.9984 307.584 
L 156.8 307.584 
L 156.6016 307.584 
L 156.4032 307.584 
L 156.2048 307.584 
L 156.0064 307.584 
L 155.808 307.584 
L 155.6096 307.584 
L 155.4112 307.584 
L 155.2128 307.584 
L 155.0144 307.584 
L 154.816 307.584 
L 154.6176 307.584 
L 154.4192 307.584 
L 154.2208 307.584 
L 154.0224 307.584 
L 153.824 307.584 
L 153.4272 307.584 
L 153.2288 307.584 
L 153.0304 307.584 
L 152.832 307.584 
L 152.6336 307.584 
L 152.4352 307.584 
L 152.2368 307.584 
L 152.0384 307.584 
L 151.84 307.584 
L 151.6416 307.584 
L 151.4432 307.584 
L 151.2448 307.584 
L 151.0464 307.584 
L 150.848 307.584 
L 150.6496 307.584 
L 150.4512 307.584 
L 150.2528 307.584 
L 149.856 307.584 
L 149.6576 307.584 
L 149.4592 307.584 
L 149.2608 307.584 
L 149.0624 307.584 
L 148.864 307.584 
L 148.6656 307.584 
L 148.4672 307.584 
L 148.2688 307.584 
L 148.0704 307.584 
L 147.872 307.584 
L 147.6736 307.584 
L 147.4752 307.584 
L 147.2768 307.584 
L 147.0784 307.584 
L 146.88 307.584 
L 146.6816 307.584 
L 146.4832 307.584 
L 146.2848 307.584 
L 146.0864 307.584 
L 145.888 307.584 
L 145.4912 307.584 
L 145.2928 307.584 
L 145.0944 307.584 
L 144.896 307.584 
L 144.6976 307.584 
L 144.4992 307.584 
L 144.3008 307.584 
L 144.1024 307.584 
L 143.904 307.584 
L 143.7056 307.584 
L 143.5072 307.584 
L 143.3088 307.584 
L 143.1104 307.584 
L 142.912 307.584 
L 142.7136 307.584 
L 142.5152 307.584 
L 142.3168 307.584 
L 141.92 307.584 
L 141.7216 307.584 
L 141.5232 307.584 
L 141.3248 307.584 
L 141.1264 307.584 
L 140.928 307.584 
L 140.7296 307.584 
L 140.5312 307.584 
L 140.3328 307.584 
L 140.1344 307.584 
L 139.936 307.584 
L 139.7376 307.584 
L 139.5392 307.584 
L 139.3408 307.584 
L 139.1424 307.584 
L 138.944 307.584 
L 138.7456 307.584 
L 138.5472 307.584 
L 138.3488 307.584 
L 137.952 307.584 
L 137.7536 307.584 
L 137.5552 307.584 
L 137.3568 307.584 
L 137.1584 307.584 
L 136.96 307.584 
L 136.7616 307.584 
L 136.5632 307.584 
L 136.3648 307.584 
L 136.1664 307.584 
L 135.968 307.584 
L 135.7696 307.584 
L 135.5712 307.584 
L 135.3728 307.584 
L 135.1744 307.584 
L 134.976 307.584 
L 134.5792 307.584 
L 134.5792 307.584 
L 134.3808 307.584 
L 133.984 307.584 
L 133.7856 307.584 
L 133.5872 307.584 
L 133.3888 307.584 
L 133.1904 307.584 
L 132.992 307.584 
L 132.7936 307.584 
L 132.5952 307.584 
L 132.3968 307.584 
L 132.1984 307.584 
L 132 307.584 
L 131.8016 307.584 
L 131.6032 307.584 
L 131.4048 307.584 
L 131.2064 307.584 
L 131.008 307.584 
L 130.8096 307.584 
L 130.6112 307.584 
L 130.2144 307.584 
L 130.016 307.584 
L 129.8176 307.584 
L 129.6192 307.584 
L 129.4208 307.584 
L 129.2224 307.584 
L 129.024 307.584 
L 128.8256 307.584 
L 128.6272 307.584 
L 128.4288 307.584 
L 128.2304 307.584 
L 128.032 307.584 
L 127.8336 307.584 
L 127.6352 307.584 
L 127.4368 307.584 
L 127.2384 307.584 
L 127.04 307.584 
L 126.8416 307.584 
L 126.6432 307.584 
L 126.4448 307.584 
L 126.048 307.584 
L 125.8496 307.584 
L 125.6512 307.584 
L 125.4528 307.584 
L 125.2544 307.584 
L 125.056 307.584 
L 124.8576 307.584 
L 124.6592 307.584 
L 124.4608 307.584 
L 124.2624 307.584 
L 124.064 307.584 
L 123.8656 307.584 
L 123.6672 307.584 
L 123.4688 307.584 
L 123.2704 307.584 
L 123.072 307.584 
L 122.8736 307.584 
L 122.4768 307.584 
L 122.2784 307.584 
L 122.08 307.584 
L 121.8816 307.584 
L 121.6832 307.584 
L 121.4848 307.584 
L 121.2864 307.584 
L 121.088 307.584 
L 120.8896 307.584 
L 120.6912 307.584 
L 120.4928 307.584 
L 120.2944 307.584 
L 120.096 307.584 
L 119.8976 307.584 
L 119.6992 307.584 
L 119.5008 307.584 
L 119.3024 307.584 
L 119.104 307.584 
L 118.9056 307.584 
L 118.5088 307.584 
L 118.3104 307.584 
L 118.112 307.584 
L 117.9136 307.584 
L 117.7152 307.584 
L 117.5168 307.584 
L 117.3184 307.584 
L 117.12 307.584 
L 116.9216 307.584 
L 116.7232 307.584 
L 116.5248 307.584 
L 116.3264 307.584 
L 116.128 307.584 
z
" clip-path="url(#pb80c7eaf45)" style="fill: #000080; fill-opacity: 0.3; stroke: #000080; stroke-opacity: 0.3"/>
    <path d="M 222.272 307.584 
L 222.272 174.528 
L 222.4704 174.528 
L 222.6688 174.528 
L 222.8672 174.528 
L 223.0656 174.528 
L 223.264 174.528 
L 223.4624 174.528 
L 223.8592 174.528 
L 223.8592 174.528 
L 224.256 174.528 
L 224.4544 174.528 
L 224.6528 174.528 
L 224.8512 174.528 
L 225.0496 174.528 
L 225.248 174.528 
L 225.4464 174.528 
L 225.6448 174.528 
L 225.8432 174.528 
L 226.0416 174.528 
L 226.24 174.528 
L 226.4384 174.528 
L 226.4384 307.584 
L 226.4384 307.584 
L 226.24 307.584 
L 226.0416 307.584 
L 225.8432 307.584 
L 225.6448 307.584 
L 225.4464 307.584 
L 225.248 307.584 
L 225.0496 307.584 
L 224.8512 307.584 
L 224.6528 307.584 
L 224.4544 307.584 
L 224.256 307.584 
L 223.8592 307.584 
L 223.8592 307.584 
L 223.4624 307.584 
L 223.264 307.584 
L 223.0656 307.584 
L 222.8672 307.584 
L 222.6688 307.584 
L 222.4704 307.584 
L 222.272 307.584 
z
" clip-path="url(#pb80c7eaf45)" style="fill: #000080; fill-opacity: 0.3; stroke: #000080; stroke-opacity: 0.3"/>
    <path d="M 229.0176 307.584 
L 229.0176 174.528 
L 229.216 174.528 
L 229.4144 174.528 
L 229.6128 174.528 
L 229.8112 174.528 
L 230.0096 174.528 
L 230.208 174.528 
L 230.4064 174.528 
L 230.6048 174.528 
L 230.8032 174.528 
L 231.0016 174.528 
L 231.2 174.528 
L 231.5968 174.528 
L 231.5968 174.528 
L 231.9936 174.528 
L 232.192 174.528 
L 232.3904 174.528 
L 232.5888 174.528 
L 232.7872 174.528 
L 232.9856 174.528 
L 233.184 174.528 
L 233.3824 174.528 
L 233.5808 174.528 
L 233.7792 174.528 
L 233.9776 174.528 
L 234.176 174.528 
L 234.3744 174.528 
L 234.5728 174.528 
L 234.7712 174.528 
L 234.9696 174.528 
L 235.168 174.528 
L 235.3664 174.528 
L 235.7632 174.528 
L 235.9616 174.528 
L 236.16 174.528 
L 236.3584 174.528 
L 236.5568 174.528 
L 236.7552 174.528 
L 236.9536 174.528 
L 237.152 174.528 
L 237.3504 174.528 
L 237.5488 174.528 
L 237.7472 174.528 
L 237.9456 174.528 
L 238.144 174.528 
L 238.3424 174.528 
L 238.5408 174.528 
L 238.7392 174.528 
L 238.9376 174.528 
L 239.136 174.528 
L 239.3344 174.528 
L 239.7312 174.528 
L 239.9296 174.528 
L 240.128 174.528 
L 240.3264 174.528 
L 240.5248 174.528 
L 240.7232 174.528 
L 240.9216 174.528 
L 241.12 174.528 
L 241.3184 174.528 
L 241.5168 174.528 
L 241.7152 174.528 
L 241.9136 174.528 
L 242.112 174.528 
L 242.3104 174.528 
L 242.5088 174.528 
L 242.7072 174.528 
L 242.9056 174.528 
L 243.3024 174.528 
L 243.5008 174.528 
L 243.6992 174.528 
L 243.8976 174.528 
L 244.096 174.528 
L 244.2944 174.528 
L 244.4928 174.528 
L 244.6912 174.528 
L 244.8896 174.528 
L 245.088 174.528 
L 245.2864 174.528 
L 245.4848 174.528 
L 245.6832 174.528 
L 245.8816 174.528 
L 246.08 174.528 
L 246.2784 174.528 
L 246.4768 174.528 
L 246.6752 174.528 
L 246.8736 174.528 
L 247.072 174.528 
L 247.4688 174.528 
L 247.6672 174.528 
L 247.8656 174.528 
L 248.064 174.528 
L 248.2624 174.528 
L 248.4608 174.528 
L 248.6592 174.528 
L 248.8576 174.528 
L 249.056 174.528 
L 249.2544 174.528 
L 249.4528 174.528 
L 249.6512 174.528 
L 249.8496 174.528 
L 250.048 174.528 
L 250.2464 174.528 
L 250.4448 174.528 
L 250.8416 174.528 
L 251.04 174.528 
L 251.2384 174.528 
L 251.4368 174.528 
L 251.6352 174.528 
L 251.8336 174.528 
L 252.032 174.528 
L 252.2304 174.528 
L 252.4288 174.528 
L 252.6272 174.528 
L 252.8256 174.528 
L 253.024 174.528 
L 253.2224 174.528 
L 253.4208 174.528 
L 253.6192 174.528 
L 253.8176 174.528 
L 254.016 174.528 
L 254.2144 174.528 
L 254.4128 174.528 
L 254.6112 174.528 
L 254.8096 174.528 
L 255.2064 174.528 
L 255.4048 174.528 
L 255.6032 174.528 
L 255.8016 174.528 
L 256 174.528 
L 256.1984 174.528 
L 256.3968 174.528 
L 256.5952 174.528 
L 256.7936 174.528 
L 256.992 174.528 
L 257.1904 174.528 
L 257.3888 174.528 
L 257.5872 174.528 
L 257.7856 174.528 
L 257.984 174.528 
L 258.1824 174.528 
L 258.3808 174.528 
L 258.5792 174.528 
L 258.976 174.528 
L 259.1744 174.528 
L 259.3728 174.528 
L 259.5712 174.528 
L 259.7696 174.528 
L 259.968 174.528 
L 260.1664 174.528 
L 260.3648 174.528 
L 260.5632 174.528 
L 260.7616 174.528 
L 260.96 174.528 
L 261.1584 174.528 
L 261.3568 174.528 
L 261.5552 174.528 
L 261.7536 174.528 
L 261.952 174.528 
L 262.1504 174.528 
L 262.3488 174.528 
L 262.7456 174.528 
L 262.944 174.528 
L 263.1424 174.528 
L 263.3408 174.528 
L 263.5392 174.528 
L 263.7376 174.528 
L 263.936 174.528 
L 264.1344 174.528 
L 264.3328 174.528 
L 264.5312 174.528 
L 264.7296 174.528 
L 264.928 174.528 
L 265.1264 174.528 
L 265.3248 174.528 
L 265.5232 174.528 
L 265.7216 174.528 
L 265.92 174.528 
L 266.1184 174.528 
L 266.3168 174.528 
L 266.7136 174.528 
L 266.912 174.528 
L 267.1104 174.528 
L 267.3088 174.528 
L 267.5072 174.528 
L 267.7056 174.528 
L 267.904 174.528 
L 268.1024 174.528 
L 268.3008 174.528 
L 268.4992 174.528 
L 268.6976 174.528 
L 268.896 174.528 
L 269.0944 174.528 
L 269.2928 174.528 
L 269.4912 174.528 
L 269.6896 174.528 
L 269.888 174.528 
L 270.2848 174.528 
L 270.4832 174.528 
L 270.6816 174.528 
L 270.88 174.528 
L 271.0784 174.528 
L 271.2768 174.528 
L 271.4752 174.528 
L 271.6736 174.528 
L 271.872 174.528 
L 272.0704 174.528 
L 272.2688 174.528 
L 272.4672 174.528 
L 272.6656 174.528 
L 272.864 174.528 
L 273.0624 174.528 
L 273.2608 174.528 
L 273.4592 174.528 
L 273.6576 174.528 
L 273.856 174.528 
L 274.0544 174.528 
L 274.2528 174.528 
L 274.6496 174.528 
L 274.848 174.528 
L 275.0464 174.528 
L 275.2448 174.528 
L 275.4432 174.528 
L 275.6416 174.528 
L 275.84 174.528 
L 276.0384 174.528 
L 276.2368 174.528 
L 276.4352 174.528 
L 276.6336 174.528 
L 276.832 174.528 
L 277.0304 174.528 
L 277.2288 174.528 
L 277.4272 174.528 
L 277.6256 174.528 
L 277.824 174.528 
L 278.2208 174.528 
L 278.4192 174.528 
L 278.4192 174.528 
L 278.816 174.528 
L 279.0144 174.528 
L 279.2128 174.528 
L 279.4112 174.528 
L 279.6096 174.528 
L 279.808 174.528 
L 280.0064 174.528 
L 280.2048 174.528 
L 280.4032 174.528 
L 280.6016 174.528 
L 280.8 174.528 
L 280.9984 174.528 
L 281.1968 174.528 
L 281.3952 174.528 
L 281.5936 174.528 
L 281.792 174.528 
L 282.1888 174.528 
L 282.3872 174.528 
L 282.5856 174.528 
L 282.784 174.528 
L 282.9824 174.528 
L 283.1808 174.528 
L 283.3792 174.528 
L 283.5776 174.528 
L 283.776 174.528 
L 283.9744 174.528 
L 284.1728 174.528 
L 284.3712 174.528 
L 284.5696 174.528 
L 284.768 174.528 
L 284.9664 174.528 
L 285.1648 174.528 
L 285.3632 174.528 
L 285.3632 307.584 
L 285.3632 307.584 
L 285.1648 307.584 
L 284.9664 307.584 
L 284.768 307.584 
L 284.5696 307.584 
L 284.3712 307.584 
L 284.1728 307.584 
L 283.9744 307.584 
L 283.776 307.584 
L 283.5776 307.584 
L 283.3792 307.584 
L 283.1808 307.584 
L 282.9824 307.584 
L 282.784 307.584 
L 282.5856 307.584 
L 282.3872 307.584 
L 282.1888 307.584 
L 281.792 307.584 
L 281.5936 307.584 
L 281.3952 307.584 
L 281.1968 307.584 
L 280.9984 307.584 
L 280.8 307.584 
L 280.6016 307.584 
L 280.4032 307.584 
L 280.2048 307.584 
L 280.0064 307.584 
L 279.808 307.584 
L 279.6096 307.584 
L 279.4112 307.584 
L 279.2128 307.584 
L 279.0144 307.584 
L 278.816 307.584 
L 278.4192 307.584 
L 278.4192 307.584 
L 278.2208 307.584 
L 277.824 307.584 
L 277.6256 307.584 
L 277.4272 307.584 
L 277.2288 307.584 
L 277.0304 307.584 
L 276.832 307.584 
L 276.6336 307.584 
L 276.4352 307.584 
L 276.2368 307.584 
L 276.0384 307.584 
L 275.84 307.584 
L 275.6416 307.584 
L 275.4432 307.584 
L 275.2448 307.584 
L 275.0464 307.584 
L 274.848 307.584 
L 274.6496 307.584 
L 274.2528 307.584 
L 274.0544 307.584 
L 273.856 307.584 
L 273.6576 307.584 
L 273.4592 307.584 
L 273.2608 307.584 
L 273.0624 307.584 
L 272.864 307.584 
L 272.6656 307.584 
L 272.4672 307.584 
L 272.2688 307.584 
L 272.0704 307.584 
L 271.872 307.584 
L 271.6736 307.584 
L 271.4752 307.584 
L 271.2768 307.584 
L 271.0784 307.584 
L 270.88 307.584 
L 270.6816 307.584 
L 270.4832 307.584 
L 270.2848 307.584 
L 269.888 307.584 
L 269.6896 307.584 
L 269.4912 307.584 
L 269.2928 307.584 
L 269.0944 307.584 
L 268.896 307.584 
L 268.6976 307.584 
L 268.4992 307.584 
L 268.3008 307.584 
L 268.1024 307.584 
L 267.904 307.584 
L 267.7056 307.584 
L 267.5072 307.584 
L 267.3088 307.584 
L 267.1104 307.584 
L 266.912 307.584 
L 266.7136 307.584 
L 266.3168 307.584 
L 266.1184 307.584 
L 265.92 307.584 
L 265.7216 307.584 
L 265.5232 307.584 
L 265.3248 307.584 
L 265.1264 307.584 
L 264.928 307.584 
L 264.7296 307.584 
L 264.5312 307.584 
L 264.3328 307.584 
L 264.1344 307.584 
L 263.936 307.584 
L 263.7376 307.584 
L 263.5392 307.584 
L 263.3408 307.584 
L 263.1424 307.584 
L 262.944 307.584 
L 262.7456 307.584 
L 262.3488 307.584 
L 262.1504 307.584 
L 261.952 307.584 
L 261.7536 307.584 
L 261.5552 307.584 
L 261.3568 307.584 
L 261.1584 307.584 
L 260.96 307.584 
L 260.7616 307.584 
L 260.5632 307.584 
L 260.3648 307.584 
L 260.1664 307.584 
L 259.968 307.584 
L 259.7696 307.584 
L 259.5712 307.584 
L 259.3728 307.584 
L 259.1744 307.584 
L 258.976 307.584 
L 258.5792 307.584 
L 258.3808 307.584 
L 258.1824 307.584 
L 257.984 307.584 
L 257.7856 307.584 
L 257.5872 307.584 
L 257.3888 307.584 
L 257.1904 307.584 
L 256.992 307.584 
L 256.7936 307.584 
L 256.5952 307.584 
L 256.3968 307.584 
L 256.1984 307.584 
L 256 307.584 
L 255.8016 307.584 
L 255.6032 307.584 
L 255.4048 307.584 
L 255.2064 307.584 
L 254.8096 307.584 
L 254.6112 307.584 
L 254.4128 307.584 
L 254.2144 307.584 
L 254.016 307.584 
L 253.8176 307.584 
L 253.6192 307.584 
L 253.4208 307.584 
L 253.2224 307.584 
L 253.024 307.584 
L 252.8256 307.584 
L 252.6272 307.584 
L 252.4288 307.584 
L 252.2304 307.584 
L 252.032 307.584 
L 251.8336 307.584 
L 251.6352 307.584 
L 251.4368 307.584 
L 251.2384 307.584 
L 251.04 307.584 
L 250.8416 307.584 
L 250.4448 307.584 
L 250.2464 307.584 
L 250.048 307.584 
L 249.8496 307.584 
L 249.6512 307.584 
L 249.4528 307.584 
L 249.2544 307.584 
L 249.056 307.584 
L 248.8576 307.584 
L 248.6592 307.584 
L 248.4608 307.584 
L 248.2624 307.584 
L 248.064 307.584 
L 247.8656 307.584 
L 247.6672 307.584 
L 247.4688 307.584 
L 247.072 307.584 
L 246.8736 307.584 
L 246.6752 307.584 
L 246.4768 307.584 
L 246.2784 307.584 
L 246.08 307.584 
L 245.8816 307.584 
L 245.6832 307.584 
L 245.4848 307.584 
L 245.2864 307.584 
L 245.088 307.584 
L 244.8896 307.584 
L 244.6912 307.584 
L 244.4928 307.584 
L 244.2944 307.584 
L 244.096 307.584 
L 243.8976 307.584 
L 243.6992 307.584 
L 243.5008 307.584 
L 243.3024 307.584 
L 242.9056 307.584 
L 242.7072 307.584 
L 242.5088 307.584 
L 242.3104 307.584 
L 242.112 307.584 
L 241.9136 307.584 
L 241.7152 307.584 
L 241.5168 307.584 
L 241.3184 307.584 
L 241.12 307.584 
L 240.9216 307.584 
L 240.7232 307.584 
L 240.5248 307.584 
L 240.3264 307.584 
L 240.128 307.584 
L 239.9296 307.584 
L 239.7312 307.584 
L 239.3344 307.584 
L 239.136 307.584 
L 238.9376 307.584 
L 238.7392 307.584 
L 238.5408 307.584 
L 238.3424 307.584 
L 238.144 307.584 
L 237.9456 307.584 
L 237.7472 307.584 
L 237.5488 307.584 
L 237.3504 307.584 
L 237.152 307.584 
L 236.9536 307.584 
L 236.7552 307.584 
L 236.5568 307.584 
L 236.3584 307.584 
L 236.16 307.584 
L 235.9616 307.584 
L 235.7632 307.584 
L 235.3664 307.584 
L 235.168 307.584 
L 234.9696 307.584 
L 234.7712 307.584 
L 234.5728 307.584 
L 234.3744 307.584 
L 234.176 307.584 
L 233.9776 307.584 
L 233.7792 307.584 
L 233.5808 307.584 
L 233.3824 307.584 
L 233.184 307.584 
L 232.9856 307.584 
L 232.7872 307.584 
L 232.5888 307.584 
L 232.3904 307.584 
L 232.192 307.584 
L 231.9936 307.584 
L 231.5968 307.584 
L 231.5968 307.584 
L 231.2 307.584 
L 231.0016 307.584 
L 230.8032 307.584 
L 230.6048 307.584 
L 230.4064 307.584 
L 230.208 307.584 
L 230.0096 307.584 
L 229.8112 307.584 
L 229.6128 307.584 
L 229.4144 307.584 
L 229.216 307.584 
L 229.0176 307.584 
z
" clip-path="url(#pb80c7eaf45)" style="fill: #000080; fill-opacity: 0.3; stroke: #000080; stroke-opacity: 0.3"/>
    <path d="M 338.336 307.584 
L 338.336 174.528 
L 338.5344 174.528 
L 338.7328 174.528 
L 338.9312 174.528 
L 339.1296 174.528 
L 339.328 174.528 
L 339.5264 174.528 
L 339.7248 174.528 
L 339.9232 174.528 
L 340.1216 174.528 
L 340.32 174.528 
L 340.7168 174.528 
L 340.9152 174.528 
L 341.1136 174.528 
L 341.312 174.528 
L 341.5104 174.528 
L 341.7088 174.528 
L 341.9072 174.528 
L 342.1056 174.528 
L 342.304 174.528 
L 342.5024 174.528 
L 342.7008 174.528 
L 342.8992 174.528 
L 343.0976 174.528 
L 343.296 174.528 
L 343.4944 174.528 
L 343.6928 174.528 
L 343.8912 174.528 
L 344.288 174.528 
L 344.4864 174.528 
L 344.6848 174.528 
L 344.8832 174.528 
L 345.0816 174.528 
L 345.28 174.528 
L 345.4784 174.528 
L 345.6768 174.528 
L 345.8752 174.528 
L 346.0736 174.528 
L 346.272 174.528 
L 346.4704 174.528 
L 346.6688 174.528 
L 346.8672 174.528 
L 347.0656 174.528 
L 347.264 174.528 
L 347.4624 174.528 
L 347.6608 174.528 
L 347.8592 174.528 
L 348.256 174.528 
L 348.4544 174.528 
L 348.6528 174.528 
L 348.8512 174.528 
L 349.0496 174.528 
L 349.248 174.528 
L 349.4464 174.528 
L 349.6448 174.528 
L 349.8432 174.528 
L 350.0416 174.528 
L 350.24 174.528 
L 350.4384 174.528 
L 350.6368 174.528 
L 350.8352 174.528 
L 351.0336 174.528 
L 351.232 174.528 
L 351.4304 174.528 
L 351.6288 174.528 
L 351.8272 174.528 
L 352.224 174.528 
L 352.4224 174.528 
L 352.6208 174.528 
L 352.8192 174.528 
L 353.0176 174.528 
L 353.216 174.528 
L 353.4144 174.528 
L 353.6128 174.528 
L 353.8112 174.528 
L 354.0096 174.528 
L 354.208 174.528 
L 354.4064 174.528 
L 354.6048 174.528 
L 354.8032 174.528 
L 355.0016 174.528 
L 355.2 174.528 
L 355.3984 174.528 
L 355.5968 174.528 
L 355.9936 174.528 
L 356.192 174.528 
L 356.3904 174.528 
L 356.5888 174.528 
L 356.7872 174.528 
L 356.9856 174.528 
L 357.184 174.528 
L 357.3824 174.528 
L 357.5808 174.528 
L 357.7792 174.528 
L 357.9776 174.528 
L 358.176 174.528 
L 358.3744 174.528 
L 358.5728 174.528 
L 358.7712 174.528 
L 358.9696 174.528 
L 359.168 174.528 
L 359.3664 174.528 
L 359.5648 174.528 
L 359.7632 174.528 
L 360.16 174.528 
L 360.3584 174.528 
L 360.5568 174.528 
L 360.7552 174.528 
L 360.9536 174.528 
L 361.152 174.528 
L 361.3504 174.528 
L 361.5488 174.528 
L 361.7472 174.528 
L 361.9456 174.528 
L 362.144 174.528 
L 362.3424 174.528 
L 362.5408 174.528 
L 362.7392 174.528 
L 362.9376 174.528 
L 363.136 174.528 
L 363.3344 174.528 
L 363.7312 174.528 
L 363.9296 174.528 
L 364.128 174.528 
L 364.3264 174.528 
L 364.5248 174.528 
L 364.7232 174.528 
L 364.9216 174.528 
L 365.12 174.528 
L 365.3184 174.528 
L 365.5168 174.528 
L 365.7152 174.528 
L 365.9136 174.528 
L 366.112 174.528 
L 366.3104 174.528 
L 366.5088 174.528 
L 366.7072 174.528 
L 366.9056 174.528 
L 367.104 174.528 
L 367.3024 174.528 
L 367.6992 174.528 
L 367.8976 174.528 
L 368.096 174.528 
L 368.2944 174.528 
L 368.4928 174.528 
L 368.6912 174.528 
L 368.8896 174.528 
L 369.088 174.528 
L 369.2864 174.528 
L 369.4848 174.528 
L 369.6832 174.528 
L 369.8816 174.528 
L 370.08 174.528 
L 370.2784 174.528 
L 370.4768 174.528 
L 370.6752 174.528 
L 370.8736 174.528 
L 371.072 174.528 
L 371.2704 174.528 
L 371.6672 174.528 
L 371.8656 174.528 
L 372.064 174.528 
L 372.2624 174.528 
L 372.4608 174.528 
L 372.6592 174.528 
L 372.8576 174.528 
L 373.056 174.528 
L 373.2544 174.528 
L 373.4528 174.528 
L 373.6512 174.528 
L 373.8496 174.528 
L 374.048 174.528 
L 374.2464 174.528 
L 374.4448 174.528 
L 374.6432 174.528 
L 374.8416 174.528 
L 375.04 174.528 
L 375.4368 174.528 
L 375.4368 174.528 
L 375.8336 174.528 
L 376.032 174.528 
L 376.2304 174.528 
L 376.4288 174.528 
L 376.6272 174.528 
L 376.8256 174.528 
L 377.024 174.528 
L 377.2224 174.528 
L 377.4208 174.528 
L 377.6192 174.528 
L 377.8176 174.528 
L 378.016 174.528 
L 378.2144 174.528 
L 378.4128 174.528 
L 378.6112 174.528 
L 378.8096 174.528 
L 379.008 174.528 
L 379.2064 174.528 
L 379.6032 174.528 
L 379.8016 174.528 
L 380 174.528 
L 380.1984 174.528 
L 380.3968 174.528 
L 380.5952 174.528 
L 380.7936 174.528 
L 380.992 174.528 
L 381.1904 174.528 
L 381.3888 174.528 
L 381.5872 174.528 
L 381.7856 174.528 
L 381.984 174.528 
L 382.1824 174.528 
L 382.3808 174.528 
L 382.5792 174.528 
L 382.7776 174.528 
L 383.1744 174.528 
L 383.1744 174.528 
L 383.5712 174.528 
L 383.7696 174.528 
L 383.968 174.528 
L 384.1664 174.528 
L 384.3648 174.528 
L 384.5632 174.528 
L 384.7616 174.528 
L 384.96 174.528 
L 385.1584 174.528 
L 385.3568 174.528 
L 385.5552 174.528 
L 385.7536 174.528 
L 385.952 174.528 
L 386.1504 174.528 
L 386.3488 174.528 
L 386.5472 174.528 
L 386.7456 174.528 
L 387.1424 174.528 
L 387.3408 174.528 
L 387.5392 174.528 
L 387.7376 174.528 
L 387.936 174.528 
L 388.1344 174.528 
L 388.3328 174.528 
L 388.5312 174.528 
L 388.7296 174.528 
L 388.928 174.528 
L 389.1264 174.528 
L 389.3248 174.528 
L 389.5232 174.528 
L 389.5232 307.584 
L 389.5232 307.584 
L 389.3248 307.584 
L 389.1264 307.584 
L 388.928 307.584 
L 388.7296 307.584 
L 388.5312 307.584 
L 388.3328 307.584 
L 388.1344 307.584 
L 387.936 307.584 
L 387.7376 307.584 
L 387.5392 307.584 
L 387.3408 307.584 
L 387.1424 307.584 
L 386.7456 307.584 
L 386.5472 307.584 
L 386.3488 307.584 
L 386.1504 307.584 
L 385.952 307.584 
L 385.7536 307.584 
L 385.5552 307.584 
L 385.3568 307.584 
L 385.1584 307.584 
L 384.96 307.584 
L 384.7616 307.584 
L 384.5632 307.584 
L 384.3648 307.584 
L 384.1664 307.584 
L 383.968 307.584 
L 383.7696 307.584 
L 383.5712 307.584 
L 383.1744 307.584 
L 383.1744 307.584 
L 382.7776 307.584 
L 382.5792 307.584 
L 382.3808 307.584 
L 382.1824 307.584 
L 381.984 307.584 
L 381.7856 307.584 
L 381.5872 307.584 
L 381.3888 307.584 
L 381.1904 307.584 
L 380.992 307.584 
L 380.7936 307.584 
L 380.5952 307.584 
L 380.3968 307.584 
L 380.1984 307.584 
L 380 307.584 
L 379.8016 307.584 
L 379.6032 307.584 
L 379.2064 307.584 
L 379.008 307.584 
L 378.8096 307.584 
L 378.6112 307.584 
L 378.4128 307.584 
L 378.2144 307.584 
L 378.016 307.584 
L 377.8176 307.584 
L 377.6192 307.584 
L 377.4208 307.584 
L 377.2224 307.584 
L 377.024 307.584 
L 376.8256 307.584 
L 376.6272 307.584 
L 376.4288 307.584 
L 376.2304 307.584 
L 376.032 307.584 
L 375.8336 307.584 
L 375.4368 307.584 
L 375.4368 307.584 
L 375.04 307.584 
L 374.8416 307.584 
L 374.6432 307.584 
L 374.4448 307.584 
L 374.2464 307.584 
L 374.048 307.584 
L 373.8496 307.584 
L 373.6512 307.584 
L 373.4528 307.584 
L 373.2544 307.584 
L 373.056 307.584 
L 372.8576 307.584 
L 372.6592 307.584 
L 372.4608 307.584 
L 372.2624 307.584 
L 372.064 307.584 
L 371.8656 307.584 
L 371.6672 307.584 
L 371.2704 307.584 
L 371.072 307.584 
L 370.8736 307.584 
L 370.6752 307.584 
L 370.4768 307.584 
L 370.2784 307.584 
L 370.08 307.584 
L 369.8816 307.584 
L 369.6832 307.584 
L 369.4848 307.584 
L 369.2864 307.584 
L 369.088 307.584 
L 368.8896 307.584 
L 368.6912 307.584 
L 368.4928 307.584 
L 368.2944 307.584 
L 368.096 307.584 
L 367.8976 307.584 
L 367.6992 307.584 
L 367.3024 307.584 
L 367.104 307.584 
L 366.9056 307.584 
L 366.7072 307.584 
L 366.5088 307.584 
L 366.3104 307.584 
L 366.112 307.584 
L 365.9136 307.584 
L 365.7152 307.584 
L 365.5168 307.584 
L 365.3184 307.584 
L 365.12 307.584 
L 364.9216 307.584 
L 364.7232 307.584 
L 364.5248 307.584 
L 364.3264 307.584 
L 364.128 307.584 
L 363.9296 307.584 
L 363.7312 307.584 
L 363.3344 307.584 
L 363.136 307.584 
L 362.9376 307.584 
L 362.7392 307.584 
L 362.5408 307.584 
L 362.3424 307.584 
L 362.144 307.584 
L 361.9456 307.584 
L 361.7472 307.584 
L 361.5488 307.584 
L 361.3504 307.584 
L 361.152 307.584 
L 360.9536 307.584 
L 360.7552 307.584 
L 360.5568 307.584 
L 360.3584 307.584 
L 360.16 307.584 
L 359.7632 307.584 
L 359.5648 307.584 
L 359.3664 307.584 
L 359.168 307.584 
L 358.9696 307.584 
L 358.7712 307.584 
L 358.5728 307.584 
L 358.3744 307.584 
L 358.176 307.584 
L 357.9776 307.584 
L 357.7792 307.584 
L 357.5808 307.584 
L 357.3824 307.584 
L 357.184 307.584 
L 356.9856 307.584 
L 356.7872 307.584 
L 356.5888 307.584 
L 356.3904 307.584 
L 356.192 307.584 
L 355.9936 307.584 
L 355.5968 307.584 
L 355.3984 307.584 
L 355.2 307.584 
L 355.0016 307.584 
L 354.8032 307.584 
L 354.6048 307.584 
L 354.4064 307.584 
L 354.208 307.584 
L 354.0096 307.584 
L 353.8112 307.584 
L 353.6128 307.584 
L 353.4144 307.584 
L 353.216 307.584 
L 353.0176 307.584 
L 352.8192 307.584 
L 352.6208 307.584 
L 352.4224 307.584 
L 352.224 307.584 
L 351.8272 307.584 
L 351.6288 307.584 
L 351.4304 307.584 
L 351.232 307.584 
L 351.0336 307.584 
L 350.8352 307.584 
L 350.6368 307.584 
L 350.4384 307.584 
L 350.24 307.584 
L 350.0416 307.584 
L 349.8432 307.584 
L 349.6448 307.584 
L 349.4464 307.584 
L 349.248 307.584 
L 349.0496 307.584 
L 348.8512 307.584 
L 348.6528 307.584 
L 348.4544 307.584 
L 348.256 307.584 
L 347.8592 307.584 
L 347.6608 307.584 
L 347.4624 307.584 
L 347.264 307.584 
L 347.0656 307.584 
L 346.8672 307.584 
L 346.6688 307.584 
L 346.4704 307.584 
L 346.272 307.584 
L 346.0736 307.584 
L 345.8752 307.584 
L 345.6768 307.584 
L 345.4784 307.584 
L 345.28 307.584 
L 345.0816 307.584 
L 344.8832 307.584 
L 344.6848 307.584 
L 344.4864 307.584 
L 344.288 307.584 
L 343.8912 307.584 
L 343.6928 307.584 
L 343.4944 307.584 
L 343.296 307.584 
L 343.0976 307.584 
L 342.8992 307.584 
L 342.7008 307.584 
L 342.5024 307.584 
L 342.304 307.584 
L 342.1056 307.584 
L 341.9072 307.584 
L 341.7088 307.584 
L 341.5104 307.584 
L 341.312 307.584 
L 341.1136 307.584 
L 340.9152 307.584 
L 340.7168 307.584 
L 340.32 307.584 
L 340.1216 307.584 
L 339.9232 307.584 
L 339.7248 307.584 
L 339.5264 307.584 
L 339.328 307.584 
L 339.1296 307.584 
L 338.9312 307.584 
L 338.7328 307.584 
L 338.5344 307.584 
L 338.336 307.584 
z
" clip-path="url(#pb80c7eaf45)" style="fill: #000080; fill-opacity: 0.3; stroke: #000080; stroke-opacity: 0.3"/>
    <path d="M 436.1472 307.584 
L 436.1472 174.528 
L 436.3456 174.528 
L 436.544 174.528 
L 436.7424 174.528 
L 436.9408 174.528 
L 437.1392 174.528 
L 437.3376 174.528 
L 437.7344 174.528 
L 437.9328 174.528 
L 438.1312 174.528 
L 438.3296 174.528 
L 438.528 174.528 
L 438.7264 174.528 
L 438.9248 174.528 
L 439.1232 174.528 
L 439.3216 174.528 
L 439.52 174.528 
L 439.7184 174.528 
L 439.9168 174.528 
L 440.1152 174.528 
L 440.3136 174.528 
L 440.512 174.528 
L 440.7104 174.528 
L 440.9088 174.528 
L 441.3056 174.528 
L 441.504 174.528 
L 441.7024 174.528 
L 441.9008 174.528 
L 442.0992 174.528 
L 442.2976 174.528 
L 442.496 174.528 
L 442.6944 174.528 
L 442.8928 174.528 
L 443.0912 174.528 
L 443.2896 174.528 
L 443.488 174.528 
L 443.6864 174.528 
L 443.8848 174.528 
L 444.0832 174.528 
L 444.2816 174.528 
L 444.48 174.528 
L 444.6784 174.528 
L 444.8768 174.528 
L 445.0752 174.528 
L 445.2736 174.528 
L 445.6704 174.528 
L 445.8688 174.528 
L 446.0672 174.528 
L 446.2656 174.528 
L 446.464 174.528 
L 446.6624 174.528 
L 446.8608 174.528 
L 447.0592 174.528 
L 447.2576 174.528 
L 447.456 174.528 
L 447.6544 174.528 
L 447.8528 174.528 
L 448.0512 174.528 
L 448.2496 174.528 
L 448.448 174.528 
L 448.6464 174.528 
L 448.8448 174.528 
L 449.2416 174.528 
L 449.44 174.528 
L 449.6384 174.528 
L 449.8368 174.528 
L 450.0352 174.528 
L 450.2336 174.528 
L 450.432 174.528 
L 450.6304 174.528 
L 450.8288 174.528 
L 451.0272 174.528 
L 451.2256 174.528 
L 451.424 174.528 
L 451.6224 174.528 
L 451.8208 174.528 
L 452.0192 174.528 
L 452.2176 174.528 
L 452.416 174.528 
L 452.6144 174.528 
L 452.8128 174.528 
L 453.2096 174.528 
L 453.408 174.528 
L 453.6064 174.528 
L 453.8048 174.528 
L 454.0032 174.528 
L 454.2016 174.528 
L 454.4 174.528 
L 454.5984 174.528 
L 454.7968 174.528 
L 454.9952 174.528 
L 455.1936 174.528 
L 455.392 174.528 
L 455.5904 174.528 
L 455.7888 174.528 
L 455.9872 174.528 
L 456.1856 174.528 
L 456.384 174.528 
L 456.5824 174.528 
L 456.7808 174.528 
L 456.9792 174.528 
L 457.376 174.528 
L 457.5744 174.528 
L 457.7728 174.528 
L 457.9712 174.528 
L 458.1696 174.528 
L 458.368 174.528 
L 458.5664 174.528 
L 458.7648 174.528 
L 458.9632 174.528 
L 459.1616 174.528 
L 459.36 174.528 
L 459.5584 174.528 
L 459.7568 174.528 
L 459.9552 174.528 
L 460.1536 174.528 
L 460.352 174.528 
L 460.7488 174.528 
L 460.9472 174.528 
L 461.1456 174.528 
L 461.344 174.528 
L 461.5424 174.528 
L 461.7408 174.528 
L 461.9392 174.528 
L 462.1376 174.528 
L 462.336 174.528 
L 462.5344 174.528 
L 462.7328 174.528 
L 462.9312 174.528 
L 463.1296 174.528 
L 463.328 174.528 
L 463.5264 174.528 
L 463.7248 174.528 
L 463.9232 174.528 
L 464.1216 174.528 
L 464.1216 307.584 
L 464.1216 307.584 
L 463.9232 307.584 
L 463.7248 307.584 
L 463.5264 307.584 
L 463.328 307.584 
L 463.1296 307.584 
L 462.9312 307.584 
L 462.7328 307.584 
L 462.5344 307.584 
L 462.336 307.584 
L 462.1376 307.584 
L 461.9392 307.584 
L 461.7408 307.584 
L 461.5424 307.584 
L 461.344 307.584 
L 461.1456 307.584 
L 460.9472 307.584 
L 460.7488 307.584 
L 460.352 307.584 
L 460.1536 307.584 
L 459.9552 307.584 
L 459.7568 307.584 
L 459.5584 307.584 
L 459.36 307.584 
L 459.1616 307.584 
L 458.9632 307.584 
L 458.7648 307.584 
L 458.5664 307.584 
L 458.368 307.584 
L 458.1696 307.584 
L 457.9712 307.584 
L 457.7728 307.584 
L 457.5744 307.584 
L 457.376 307.584 
L 456.9792 307.584 
L 456.7808 307.584 
L 456.5824 307.584 
L 456.384 307.584 
L 456.1856 307.584 
L 455.9872 307.584 
L 455.7888 307.584 
L 455.5904 307.584 
L 455.392 307.584 
L 455.1936 307.584 
L 454.9952 307.584 
L 454.7968 307.584 
L 454.5984 307.584 
L 454.4 307.584 
L 454.2016 307.584 
L 454.0032 307.584 
L 453.8048 307.584 
L 453.6064 307.584 
L 453.408 307.584 
L 453.2096 307.584 
L 452.8128 307.584 
L 452.6144 307.584 
L 452.416 307.584 
L 452.2176 307.584 
L 452.0192 307.584 
L 451.8208 307.584 
L 451.6224 307.584 
L 451.424 307.584 
L 451.2256 307.584 
L 451.0272 307.584 
L 450.8288 307.584 
L 450.6304 307.584 
L 450.432 307.584 
L 450.2336 307.584 
L 450.0352 307.584 
L 449.8368 307.584 
L 449.6384 307.584 
L 449.44 307.584 
L 449.2416 307.584 
L 448.8448 307.584 
L 448.6464 307.584 
L 448.448 307.584 
L 448.2496 307.584 
L 448.0512 307.584 
L 447.8528 307.584 
L 447.6544 307.584 
L 447.456 307.584 
L 447.2576 307.584 
L 447.0592 307.584 
L 446.8608 307.584 
L 446.6624 307.584 
L 446.464 307.584 
L 446.2656 307.584 
L 446.0672 307.584 
L 445.8688 307.584 
L 445.6704 307.584 
L 445.2736 307.584 
L 445.0752 307.584 
L 444.8768 307.584 
L 444.6784 307.584 
L 444.48 307.584 
L 444.2816 307.584 
L 444.0832 307.584 
L 443.8848 307.584 
L 443.6864 307.584 
L 443.488 307.584 
L 443.2896 307.584 
L 443.0912 307.584 
L 442.8928 307.584 
L 442.6944 307.584 
L 442.496 307.584 
L 442.2976 307.584 
L 442.0992 307.584 
L 441.9008 307.584 
L 441.7024 307.584 
L 441.504 307.584 
L 441.3056 307.584 
L 440.9088 307.584 
L 440.7104 307.584 
L 440.512 307.584 
L 440.3136 307.584 
L 440.1152 307.584 
L 439.9168 307.584 
L 439.7184 307.584 
L 439.52 307.584 
L 439.3216 307.584 
L 439.1232 307.584 
L 438.9248 307.584 
L 438.7264 307.584 
L 438.528 307.584 
L 438.3296 307.584 
L 438.1312 307.584 
L 437.9328 307.584 
L 437.7344 307.584 
L 437.3376 307.584 
L 437.1392 307.584 
L 436.9408 307.584 
L 436.7424 307.584 
L 436.544 307.584 
L 436.3456 307.584 
L 436.1472 307.584 
z
" clip-path="url(#pb80c7eaf45)" style="fill: #000080; fill-opacity: 0.3; stroke: #000080; stroke-opacity: 0.3"/>
   </g>
   <g id="matplotlib.axis_1">
    <g id="xtick_1">
     <g id="line2d_1">
      <path d="M 57.6 307.584 
L 57.6 41.472 
" clip-path="url(#pb80c7eaf45)" style="fill: none; stroke-dasharray: 2.96,1.28; stroke-dashoffset: 0; stroke: #b0b0b0; stroke-opacity: 0.5; stroke-width: 0.8"/>
     </g>
     <g id="line2d_2">
      <defs>
       <path id="medccc6e496" d="M 0 0 
L 0 3.5 
" style="stroke: #000000; stroke-width: 0.8"/>
      </defs>
      <g>
       <use xlink:href="#medccc6e496" x="57.6" y="307.584" style="stroke: #000000; stroke-width: 0.8"/>
      </g>
     </g>
     <g id="text_1">
      <!-- 162 -->
      <g transform="translate(50.1 321.52775) scale(0.1 -0.1)">
       <defs>
        <path id="TimesNewRomanPSMT-31" d="M 750 3822 
L 1781 4325 
L 1884 4325 
L 1884 747 
Q 1884 391 1914 303 
Q 1944 216 2037 169 
Q 2131 122 2419 116 
L 2419 0 
L 825 0 
L 825 116 
Q 1125 122 1212 167 
Q 1300 213 1334 289 
Q 1369 366 1369 747 
L 1369 3034 
Q 1369 3497 1338 3628 
Q 1316 3728 1258 3775 
Q 1200 3822 1119 3822 
Q 1003 3822 797 3725 
L 750 3822 
z
" transform="scale(0.015625)"/>
        <path id="TimesNewRomanPSMT-36" d="M 2869 4325 
L 2869 4209 
Q 2456 4169 2195 4045 
Q 1934 3922 1679 3669 
Q 1425 3416 1258 3105 
Q 1091 2794 978 2366 
Q 1428 2675 1881 2675 
Q 2316 2675 2634 2325 
Q 2953 1975 2953 1425 
Q 2953 894 2631 456 
Q 2244 -75 1606 -75 
Q 1172 -75 869 213 
Q 275 772 275 1663 
Q 275 2231 503 2743 
Q 731 3256 1154 3653 
Q 1578 4050 1965 4187 
Q 2353 4325 2688 4325 
L 2869 4325 
z
M 925 2138 
Q 869 1716 869 1456 
Q 869 1156 980 804 
Q 1091 453 1309 247 
Q 1469 100 1697 100 
Q 1969 100 2183 356 
Q 2397 613 2397 1088 
Q 2397 1622 2184 2012 
Q 1972 2403 1581 2403 
Q 1463 2403 1327 2353 
Q 1191 2303 925 2138 
z
" transform="scale(0.015625)"/>
        <path id="TimesNewRomanPSMT-32" d="M 2934 816 
L 2638 0 
L 138 0 
L 138 116 
Q 1241 1122 1691 1759 
Q 2141 2397 2141 2925 
Q 2141 3328 1894 3587 
Q 1647 3847 1303 3847 
Q 991 3847 742 3664 
Q 494 3481 375 3128 
L 259 3128 
Q 338 3706 661 4015 
Q 984 4325 1469 4325 
Q 1984 4325 2329 3994 
Q 2675 3663 2675 3213 
Q 2675 2891 2525 2569 
Q 2294 2063 1775 1497 
Q 997 647 803 472 
L 1909 472 
Q 2247 472 2383 497 
Q 2519 522 2628 598 
Q 2738 675 2819 816 
L 2934 816 
z
" transform="scale(0.015625)"/>
       </defs>
       <use xlink:href="#TimesNewRomanPSMT-31"/>
       <use xlink:href="#TimesNewRomanPSMT-36" x="50"/>
       <use xlink:href="#TimesNewRomanPSMT-32" x="100"/>
      </g>
     </g>
    </g>
    <g id="xtick_2">
     <g id="line2d_3">
      <path d="M 97.28 307.584 
L 97.28 41.472 
" clip-path="url(#pb80c7eaf45)" style="fill: none; stroke-dasharray: 2.96,1.28; stroke-dashoffset: 0; stroke: #b0b0b0; stroke-opacity: 0.5; stroke-width: 0.8"/>
     </g>
     <g id="line2d_4">
      <g>
       <use xlink:href="#medccc6e496" x="97.28" y="307.584" style="stroke: #000000; stroke-width: 0.8"/>
      </g>
     </g>
     <g id="text_2">
      <!-- 164 -->
      <g transform="translate(89.78 321.52775) scale(0.1 -0.1)">
       <defs>
        <path id="TimesNewRomanPSMT-34" d="M 2978 1563 
L 2978 1119 
L 2409 1119 
L 2409 0 
L 1894 0 
L 1894 1119 
L 100 1119 
L 100 1519 
L 2066 4325 
L 2409 4325 
L 2409 1563 
L 2978 1563 
z
M 1894 1563 
L 1894 3666 
L 406 1563 
L 1894 1563 
z
" transform="scale(0.015625)"/>
       </defs>
       <use xlink:href="#TimesNewRomanPSMT-31"/>
       <use xlink:href="#TimesNewRomanPSMT-36" x="50"/>
       <use xlink:href="#TimesNewRomanPSMT-34" x="100"/>
      </g>
     </g>
    </g>
    <g id="xtick_3">
     <g id="line2d_5">
      <path d="M 136.96 307.584 
L 136.96 41.472 
" clip-path="url(#pb80c7eaf45)" style="fill: none; stroke-dasharray: 2.96,1.28; stroke-dashoffset: 0; stroke: #b0b0b0; stroke-opacity: 0.5; stroke-width: 0.8"/>
     </g>
     <g id="line2d_6">
      <g>
       <use xlink:href="#medccc6e496" x="136.96" y="307.584" style="stroke: #000000; stroke-width: 0.8"/>
      </g>
     </g>
     <g id="text_3">
      <!-- 166 -->
      <g transform="translate(129.46 321.52775) scale(0.1 -0.1)">
       <use xlink:href="#TimesNewRomanPSMT-31"/>
       <use xlink:href="#TimesNewRomanPSMT-36" x="50"/>
       <use xlink:href="#TimesNewRomanPSMT-36" x="100"/>
      </g>
     </g>
    </g>
    <g id="xtick_4">
     <g id="line2d_7">
      <path d="M 176.64 307.584 
L 176.64 41.472 
" clip-path="url(#pb80c7eaf45)" style="fill: none; stroke-dasharray: 2.96,1.28; stroke-dashoffset: 0; stroke: #b0b0b0; stroke-opacity: 0.5; stroke-width: 0.8"/>
     </g>
     <g id="line2d_8">
      <g>
       <use xlink:href="#medccc6e496" x="176.64" y="307.584" style="stroke: #000000; stroke-width: 0.8"/>
      </g>
     </g>
     <g id="text_4">
      <!-- 168 -->
      <g transform="translate(169.14 321.52775) scale(0.1 -0.1)">
       <defs>
        <path id="TimesNewRomanPSMT-38" d="M 1228 2134 
Q 725 2547 579 2797 
Q 434 3047 434 3316 
Q 434 3728 753 4026 
Q 1072 4325 1600 4325 
Q 2113 4325 2425 4047 
Q 2738 3769 2738 3413 
Q 2738 3175 2569 2928 
Q 2400 2681 1866 2347 
Q 2416 1922 2594 1678 
Q 2831 1359 2831 1006 
Q 2831 559 2490 242 
Q 2150 -75 1597 -75 
Q 994 -75 656 303 
Q 388 606 388 966 
Q 388 1247 577 1523 
Q 766 1800 1228 2134 
z
M 1719 2469 
Q 2094 2806 2194 3001 
Q 2294 3197 2294 3444 
Q 2294 3772 2109 3958 
Q 1925 4144 1606 4144 
Q 1288 4144 1088 3959 
Q 888 3775 888 3528 
Q 888 3366 970 3203 
Q 1053 3041 1206 2894 
L 1719 2469 
z
M 1375 2016 
Q 1116 1797 991 1539 
Q 866 1281 866 981 
Q 866 578 1086 336 
Q 1306 94 1647 94 
Q 1984 94 2187 284 
Q 2391 475 2391 747 
Q 2391 972 2272 1150 
Q 2050 1481 1375 2016 
z
" transform="scale(0.015625)"/>
       </defs>
       <use xlink:href="#TimesNewRomanPSMT-31"/>
       <use xlink:href="#TimesNewRomanPSMT-36" x="50"/>
       <use xlink:href="#TimesNewRomanPSMT-38" x="100"/>
      </g>
     </g>
    </g>
    <g id="xtick_5">
     <g id="line2d_9">
      <path d="M 216.32 307.584 
L 216.32 41.472 
" clip-path="url(#pb80c7eaf45)" style="fill: none; stroke-dasharray: 2.96,1.28; stroke-dashoffset: 0; stroke: #b0b0b0; stroke-opacity: 0.5; stroke-width: 0.8"/>
     </g>
     <g id="line2d_10">
      <g>
       <use xlink:href="#medccc6e496" x="216.32" y="307.584" style="stroke: #000000; stroke-width: 0.8"/>
      </g>
     </g>
     <g id="text_5">
      <!-- 170 -->
      <g transform="translate(208.82 321.52775) scale(0.1 -0.1)">
       <defs>
        <path id="TimesNewRomanPSMT-37" d="M 644 4238 
L 2916 4238 
L 2916 4119 
L 1503 -88 
L 1153 -88 
L 2419 3728 
L 1253 3728 
Q 900 3728 750 3644 
Q 488 3500 328 3200 
L 238 3234 
L 644 4238 
z
" transform="scale(0.015625)"/>
        <path id="TimesNewRomanPSMT-30" d="M 231 2094 
Q 231 2819 450 3342 
Q 669 3866 1031 4122 
Q 1313 4325 1613 4325 
Q 2100 4325 2488 3828 
Q 2972 3213 2972 2159 
Q 2972 1422 2759 906 
Q 2547 391 2217 158 
Q 1888 -75 1581 -75 
Q 975 -75 572 641 
Q 231 1244 231 2094 
z
M 844 2016 
Q 844 1141 1059 588 
Q 1238 122 1591 122 
Q 1759 122 1940 273 
Q 2122 425 2216 781 
Q 2359 1319 2359 2297 
Q 2359 3022 2209 3506 
Q 2097 3866 1919 4016 
Q 1791 4119 1609 4119 
Q 1397 4119 1231 3928 
Q 1006 3669 925 3112 
Q 844 2556 844 2016 
z
" transform="scale(0.015625)"/>
       </defs>
       <use xlink:href="#TimesNewRomanPSMT-31"/>
       <use xlink:href="#TimesNewRomanPSMT-37" x="50"/>
       <use xlink:href="#TimesNewRomanPSMT-30" x="100"/>
      </g>
     </g>
    </g>
    <g id="xtick_6">
     <g id="line2d_11">
      <path d="M 256 307.584 
L 256 41.472 
" clip-path="url(#pb80c7eaf45)" style="fill: none; stroke-dasharray: 2.96,1.28; stroke-dashoffset: 0; stroke: #b0b0b0; stroke-opacity: 0.5; stroke-width: 0.8"/>
     </g>
     <g id="line2d_12">
      <g>
       <use xlink:href="#medccc6e496" x="256" y="307.584" style="stroke: #000000; stroke-width: 0.8"/>
      </g>
     </g>
     <g id="text_6">
      <!-- 172 -->
      <g transform="translate(248.5 321.52775) scale(0.1 -0.1)">
       <use xlink:href="#TimesNewRomanPSMT-31"/>
       <use xlink:href="#TimesNewRomanPSMT-37" x="50"/>
       <use xlink:href="#TimesNewRomanPSMT-32" x="100"/>
      </g>
     </g>
    </g>
    <g id="xtick_7">
     <g id="line2d_13">
      <path d="M 295.68 307.584 
L 295.68 41.472 
" clip-path="url(#pb80c7eaf45)" style="fill: none; stroke-dasharray: 2.96,1.28; stroke-dashoffset: 0; stroke: #b0b0b0; stroke-opacity: 0.5; stroke-width: 0.8"/>
     </g>
     <g id="line2d_14">
      <g>
       <use xlink:href="#medccc6e496" x="295.68" y="307.584" style="stroke: #000000; stroke-width: 0.8"/>
      </g>
     </g>
     <g id="text_7">
      <!-- 174 -->
      <g transform="translate(288.18 321.52775) scale(0.1 -0.1)">
       <use xlink:href="#TimesNewRomanPSMT-31"/>
       <use xlink:href="#TimesNewRomanPSMT-37" x="50"/>
       <use xlink:href="#TimesNewRomanPSMT-34" x="100"/>
      </g>
     </g>
    </g>
    <g id="xtick_8">
     <g id="line2d_15">
      <path d="M 335.36 307.584 
L 335.36 41.472 
" clip-path="url(#pb80c7eaf45)" style="fill: none; stroke-dasharray: 2.96,1.28; stroke-dashoffset: 0; stroke: #b0b0b0; stroke-opacity: 0.5; stroke-width: 0.8"/>
     </g>
     <g id="line2d_16">
      <g>
       <use xlink:href="#medccc6e496" x="335.36" y="307.584" style="stroke: #000000; stroke-width: 0.8"/>
      </g>
     </g>
     <g id="text_8">
      <!-- 176 -->
      <g transform="translate(327.86 321.52775) scale(0.1 -0.1)">
       <use xlink:href="#TimesNewRomanPSMT-31"/>
       <use xlink:href="#TimesNewRomanPSMT-37" x="50"/>
       <use xlink:href="#TimesNewRomanPSMT-36" x="100"/>
      </g>
     </g>
    </g>
    <g id="xtick_9">
     <g id="line2d_17">
      <path d="M 375.04 307.584 
L 375.04 41.472 
" clip-path="url(#pb80c7eaf45)" style="fill: none; stroke-dasharray: 2.96,1.28; stroke-dashoffset: 0; stroke: #b0b0b0; stroke-opacity: 0.5; stroke-width: 0.8"/>
     </g>
     <g id="line2d_18">
      <g>
       <use xlink:href="#medccc6e496" x="375.04" y="307.584" style="stroke: #000000; stroke-width: 0.8"/>
      </g>
     </g>
     <g id="text_9">
      <!-- 178 -->
      <g transform="translate(367.54 321.52775) scale(0.1 -0.1)">
       <use xlink:href="#TimesNewRomanPSMT-31"/>
       <use xlink:href="#TimesNewRomanPSMT-37" x="50"/>
       <use xlink:href="#TimesNewRomanPSMT-38" x="100"/>
      </g>
     </g>
    </g>
    <g id="xtick_10">
     <g id="line2d_19">
      <path d="M 414.72 307.584 
L 414.72 41.472 
" clip-path="url(#pb80c7eaf45)" style="fill: none; stroke-dasharray: 2.96,1.28; stroke-dashoffset: 0; stroke: #b0b0b0; stroke-opacity: 0.5; stroke-width: 0.8"/>
     </g>
     <g id="line2d_20">
      <g>
       <use xlink:href="#medccc6e496" x="414.72" y="307.584" style="stroke: #000000; stroke-width: 0.8"/>
      </g>
     </g>
     <g id="text_10">
      <!-- 180 -->
      <g transform="translate(407.22 321.52775) scale(0.1 -0.1)">
       <use xlink:href="#TimesNewRomanPSMT-31"/>
       <use xlink:href="#TimesNewRomanPSMT-38" x="50"/>
       <use xlink:href="#TimesNewRomanPSMT-30" x="100"/>
      </g>
     </g>
    </g>
    <g id="text_11">
     <!-- TIME (SEC) -->
     <g transform="translate(210.192031 334.610562) scale(0.1 -0.1)">
      <defs>
       <path id="TimesNewRomanPSMT-54" d="M 3703 4238 
L 3750 3244 
L 3631 3244 
Q 3597 3506 3538 3619 
Q 3441 3800 3280 3886 
Q 3119 3972 2856 3972 
L 2259 3972 
L 2259 734 
Q 2259 344 2344 247 
Q 2463 116 2709 116 
L 2856 116 
L 2856 0 
L 1059 0 
L 1059 116 
L 1209 116 
Q 1478 116 1591 278 
Q 1659 378 1659 734 
L 1659 3972 
L 1150 3972 
Q 853 3972 728 3928 
Q 566 3869 450 3700 
Q 334 3531 313 3244 
L 194 3244 
L 244 4238 
L 3703 4238 
z
" transform="scale(0.015625)"/>
       <path id="TimesNewRomanPSMT-49" d="M 1975 116 
L 1975 0 
L 159 0 
L 159 116 
L 309 116 
Q 572 116 691 269 
Q 766 369 766 750 
L 766 3488 
Q 766 3809 725 3913 
Q 694 3991 597 4047 
Q 459 4122 309 4122 
L 159 4122 
L 159 4238 
L 1975 4238 
L 1975 4122 
L 1822 4122 
Q 1563 4122 1444 3969 
Q 1366 3869 1366 3488 
L 1366 750 
Q 1366 428 1406 325 
Q 1438 247 1538 191 
Q 1672 116 1822 116 
L 1975 116 
z
" transform="scale(0.015625)"/>
       <path id="TimesNewRomanPSMT-4d" d="M 2619 0 
L 981 3566 
L 981 734 
Q 981 344 1066 247 
Q 1181 116 1431 116 
L 1581 116 
L 1581 0 
L 106 0 
L 106 116 
L 256 116 
Q 525 116 638 278 
Q 706 378 706 734 
L 706 3503 
Q 706 3784 644 3909 
Q 600 4000 483 4061 
Q 366 4122 106 4122 
L 106 4238 
L 1306 4238 
L 2844 922 
L 4356 4238 
L 5556 4238 
L 5556 4122 
L 5409 4122 
Q 5138 4122 5025 3959 
Q 4956 3859 4956 3503 
L 4956 734 
Q 4956 344 5044 247 
Q 5159 116 5409 116 
L 5556 116 
L 5556 0 
L 3756 0 
L 3756 116 
L 3906 116 
Q 4178 116 4288 278 
Q 4356 378 4356 734 
L 4356 3566 
L 2722 0 
L 2619 0 
z
" transform="scale(0.015625)"/>
       <path id="TimesNewRomanPSMT-45" d="M 1338 4006 
L 1338 2331 
L 2269 2331 
Q 2631 2331 2753 2441 
Q 2916 2584 2934 2947 
L 3050 2947 
L 3050 1472 
L 2934 1472 
Q 2891 1781 2847 1869 
Q 2791 1978 2662 2040 
Q 2534 2103 2269 2103 
L 1338 2103 
L 1338 706 
Q 1338 425 1363 364 
Q 1388 303 1450 267 
Q 1513 231 1688 231 
L 2406 231 
Q 2766 231 2928 281 
Q 3091 331 3241 478 
Q 3434 672 3638 1063 
L 3763 1063 
L 3397 0 
L 131 0 
L 131 116 
L 281 116 
Q 431 116 566 188 
Q 666 238 702 338 
Q 738 438 738 747 
L 738 3500 
Q 738 3903 656 3997 
Q 544 4122 281 4122 
L 131 4122 
L 131 4238 
L 3397 4238 
L 3444 3309 
L 3322 3309 
Q 3256 3644 3176 3769 
Q 3097 3894 2941 3959 
Q 2816 4006 2500 4006 
L 1338 4006 
z
" transform="scale(0.015625)"/>
       <path id="TimesNewRomanPSMT-20" transform="scale(0.015625)"/>
       <path id="TimesNewRomanPSMT-28" d="M 1988 -1253 
L 1988 -1369 
Q 1516 -1131 1200 -813 
Q 750 -359 506 256 
Q 263 872 263 1534 
Q 263 2503 741 3301 
Q 1219 4100 1988 4444 
L 1988 4313 
Q 1603 4100 1356 3731 
Q 1109 3363 987 2797 
Q 866 2231 866 1616 
Q 866 947 969 400 
Q 1050 -31 1165 -292 
Q 1281 -553 1476 -793 
Q 1672 -1034 1988 -1253 
z
" transform="scale(0.015625)"/>
       <path id="TimesNewRomanPSMT-53" d="M 2934 4334 
L 2934 2869 
L 2819 2869 
Q 2763 3291 2617 3541 
Q 2472 3791 2203 3937 
Q 1934 4084 1647 4084 
Q 1322 4084 1109 3886 
Q 897 3688 897 3434 
Q 897 3241 1031 3081 
Q 1225 2847 1953 2456 
Q 2547 2138 2764 1967 
Q 2981 1797 3098 1565 
Q 3216 1334 3216 1081 
Q 3216 600 2842 251 
Q 2469 -97 1881 -97 
Q 1697 -97 1534 -69 
Q 1438 -53 1133 45 
Q 828 144 747 144 
Q 669 144 623 97 
Q 578 50 556 -97 
L 441 -97 
L 441 1356 
L 556 1356 
Q 638 900 775 673 
Q 913 447 1195 297 
Q 1478 147 1816 147 
Q 2206 147 2432 353 
Q 2659 559 2659 841 
Q 2659 997 2573 1156 
Q 2488 1316 2306 1453 
Q 2184 1547 1640 1851 
Q 1097 2156 867 2337 
Q 638 2519 519 2737 
Q 400 2956 400 3219 
Q 400 3675 750 4004 
Q 1100 4334 1641 4334 
Q 1978 4334 2356 4169 
Q 2531 4091 2603 4091 
Q 2684 4091 2736 4139 
Q 2788 4188 2819 4334 
L 2934 4334 
z
" transform="scale(0.015625)"/>
       <path id="TimesNewRomanPSMT-43" d="M 3853 4334 
L 3950 2894 
L 3853 2894 
Q 3659 3541 3300 3825 
Q 2941 4109 2438 4109 
Q 2016 4109 1675 3895 
Q 1334 3681 1139 3212 
Q 944 2744 944 2047 
Q 944 1472 1128 1050 
Q 1313 628 1683 403 
Q 2053 178 2528 178 
Q 2941 178 3256 354 
Q 3572 531 3950 1056 
L 4047 994 
Q 3728 428 3303 165 
Q 2878 -97 2294 -97 
Q 1241 -97 663 684 
Q 231 1266 231 2053 
Q 231 2688 515 3219 
Q 800 3750 1298 4042 
Q 1797 4334 2388 4334 
Q 2847 4334 3294 4109 
Q 3425 4041 3481 4041 
Q 3566 4041 3628 4100 
Q 3709 4184 3744 4334 
L 3853 4334 
z
" transform="scale(0.015625)"/>
       <path id="TimesNewRomanPSMT-29" d="M 144 4313 
L 144 4444 
Q 619 4209 934 3891 
Q 1381 3434 1625 2820 
Q 1869 2206 1869 1541 
Q 1869 572 1392 -226 
Q 916 -1025 144 -1369 
L 144 -1253 
Q 528 -1038 776 -670 
Q 1025 -303 1145 264 
Q 1266 831 1266 1447 
Q 1266 2113 1163 2663 
Q 1084 3094 967 3353 
Q 850 3613 656 3853 
Q 463 4094 144 4313 
z
" transform="scale(0.015625)"/>
      </defs>
      <use xlink:href="#TimesNewRomanPSMT-54"/>
      <use xlink:href="#TimesNewRomanPSMT-49" x="61.083984"/>
      <use xlink:href="#TimesNewRomanPSMT-4d" x="94.384766"/>
      <use xlink:href="#TimesNewRomanPSMT-45" x="183.300781"/>
      <use xlink:href="#TimesNewRomanPSMT-20" x="244.384766"/>
      <use xlink:href="#TimesNewRomanPSMT-28" x="269.384766"/>
      <use xlink:href="#TimesNewRomanPSMT-53" x="302.685547"/>
      <use xlink:href="#TimesNewRomanPSMT-45" x="358.300781"/>
      <use xlink:href="#TimesNewRomanPSMT-43" x="419.384766"/>
      <use xlink:href="#TimesNewRomanPSMT-29" x="486.083984"/>
     </g>
    </g>
   </g>
   <g id="matplotlib.axis_2">
    <g id="ytick_1">
     <g id="line2d_21">
      <path d="M 57.6 307.584 
L 414.72 307.584 
" clip-path="url(#pb80c7eaf45)" style="fill: none; stroke-dasharray: 2.96,1.28; stroke-dashoffset: 0; stroke: #b0b0b0; stroke-opacity: 0.5; stroke-width: 0.8"/>
     </g>
     <g id="line2d_22">
      <defs>
       <path id="mb1785ce493" d="M 0 0 
L -3.5 0 
" style="stroke: #000000; stroke-width: 0.8"/>
      </defs>
      <g>
       <use xlink:href="#mb1785ce493" x="57.6" y="307.584" style="stroke: #000000; stroke-width: 0.8"/>
      </g>
     </g>
     <g id="text_12">
      <!-- 0.00 -->
      <g transform="translate(33.1 311.055875) scale(0.1 -0.1)">
       <defs>
        <path id="TimesNewRomanPSMT-2e" d="M 800 606 
Q 947 606 1047 504 
Q 1147 403 1147 259 
Q 1147 116 1045 14 
Q 944 -88 800 -88 
Q 656 -88 554 14 
Q 453 116 453 259 
Q 453 406 554 506 
Q 656 606 800 606 
z
" transform="scale(0.015625)"/>
       </defs>
       <use xlink:href="#TimesNewRomanPSMT-30"/>
       <use xlink:href="#TimesNewRomanPSMT-2e" x="50"/>
       <use xlink:href="#TimesNewRomanPSMT-30" x="75"/>
       <use xlink:href="#TimesNewRomanPSMT-30" x="125"/>
      </g>
     </g>
    </g>
    <g id="ytick_2">
     <g id="line2d_23">
      <path d="M 57.6 274.32 
L 414.72 274.32 
" clip-path="url(#pb80c7eaf45)" style="fill: none; stroke-dasharray: 2.96,1.28; stroke-dashoffset: 0; stroke: #b0b0b0; stroke-opacity: 0.5; stroke-width: 0.8"/>
     </g>
     <g id="line2d_24">
      <g>
       <use xlink:href="#mb1785ce493" x="57.6" y="274.32" style="stroke: #000000; stroke-width: 0.8"/>
      </g>
     </g>
     <g id="text_13">
      <!-- 0.25 -->
      <g transform="translate(33.1 277.791875) scale(0.1 -0.1)">
       <defs>
        <path id="TimesNewRomanPSMT-35" d="M 2778 4238 
L 2534 3706 
L 1259 3706 
L 981 3138 
Q 1809 3016 2294 2522 
Q 2709 2097 2709 1522 
Q 2709 1188 2573 903 
Q 2438 619 2231 419 
Q 2025 219 1772 97 
Q 1413 -75 1034 -75 
Q 653 -75 479 54 
Q 306 184 306 341 
Q 306 428 378 495 
Q 450 563 559 563 
Q 641 563 702 538 
Q 763 513 909 409 
Q 1144 247 1384 247 
Q 1750 247 2026 523 
Q 2303 800 2303 1197 
Q 2303 1581 2056 1914 
Q 1809 2247 1375 2428 
Q 1034 2569 447 2591 
L 1259 4238 
L 2778 4238 
z
" transform="scale(0.015625)"/>
       </defs>
       <use xlink:href="#TimesNewRomanPSMT-30"/>
       <use xlink:href="#TimesNewRomanPSMT-2e" x="50"/>
       <use xlink:href="#TimesNewRomanPSMT-32" x="75"/>
       <use xlink:href="#TimesNewRomanPSMT-35" x="125"/>
      </g>
     </g>
    </g>
    <g id="ytick_3">
     <g id="line2d_25">
      <path d="M 57.6 241.056 
L 414.72 241.056 
" clip-path="url(#pb80c7eaf45)" style="fill: none; stroke-dasharray: 2.96,1.28; stroke-dashoffset: 0; stroke: #b0b0b0; stroke-opacity: 0.5; stroke-width: 0.8"/>
     </g>
     <g id="line2d_26">
      <g>
       <use xlink:href="#mb1785ce493" x="57.6" y="241.056" style="stroke: #000000; stroke-width: 0.8"/>
      </g>
     </g>
     <g id="text_14">
      <!-- 0.50 -->
      <g transform="translate(33.1 244.527875) scale(0.1 -0.1)">
       <use xlink:href="#TimesNewRomanPSMT-30"/>
       <use xlink:href="#TimesNewRomanPSMT-2e" x="50"/>
       <use xlink:href="#TimesNewRomanPSMT-35" x="75"/>
       <use xlink:href="#TimesNewRomanPSMT-30" x="125"/>
      </g>
     </g>
    </g>
    <g id="ytick_4">
     <g id="line2d_27">
      <path d="M 57.6 207.792 
L 414.72 207.792 
" clip-path="url(#pb80c7eaf45)" style="fill: none; stroke-dasharray: 2.96,1.28; stroke-dashoffset: 0; stroke: #b0b0b0; stroke-opacity: 0.5; stroke-width: 0.8"/>
     </g>
     <g id="line2d_28">
      <g>
       <use xlink:href="#mb1785ce493" x="57.6" y="207.792" style="stroke: #000000; stroke-width: 0.8"/>
      </g>
     </g>
     <g id="text_15">
      <!-- 0.75 -->
      <g transform="translate(33.1 211.263875) scale(0.1 -0.1)">
       <use xlink:href="#TimesNewRomanPSMT-30"/>
       <use xlink:href="#TimesNewRomanPSMT-2e" x="50"/>
       <use xlink:href="#TimesNewRomanPSMT-37" x="75"/>
       <use xlink:href="#TimesNewRomanPSMT-35" x="125"/>
      </g>
     </g>
    </g>
    <g id="ytick_5">
     <g id="line2d_29">
      <path d="M 57.6 174.528 
L 414.72 174.528 
" clip-path="url(#pb80c7eaf45)" style="fill: none; stroke-dasharray: 2.96,1.28; stroke-dashoffset: 0; stroke: #b0b0b0; stroke-opacity: 0.5; stroke-width: 0.8"/>
     </g>
     <g id="line2d_30">
      <g>
       <use xlink:href="#mb1785ce493" x="57.6" y="174.528" style="stroke: #000000; stroke-width: 0.8"/>
      </g>
     </g>
     <g id="text_16">
      <!-- 1.00 -->
      <g transform="translate(33.1 177.999875) scale(0.1 -0.1)">
       <use xlink:href="#TimesNewRomanPSMT-31"/>
       <use xlink:href="#TimesNewRomanPSMT-2e" x="50"/>
       <use xlink:href="#TimesNewRomanPSMT-30" x="75"/>
       <use xlink:href="#TimesNewRomanPSMT-30" x="125"/>
      </g>
     </g>
    </g>
    <g id="ytick_6">
     <g id="line2d_31">
      <path d="M 57.6 141.264 
L 414.72 141.264 
" clip-path="url(#pb80c7eaf45)" style="fill: none; stroke-dasharray: 2.96,1.28; stroke-dashoffset: 0; stroke: #b0b0b0; stroke-opacity: 0.5; stroke-width: 0.8"/>
     </g>
     <g id="line2d_32">
      <g>
       <use xlink:href="#mb1785ce493" x="57.6" y="141.264" style="stroke: #000000; stroke-width: 0.8"/>
      </g>
     </g>
     <g id="text_17">
      <!-- 1.25 -->
      <g transform="translate(33.1 144.735875) scale(0.1 -0.1)">
       <use xlink:href="#TimesNewRomanPSMT-31"/>
       <use xlink:href="#TimesNewRomanPSMT-2e" x="50"/>
       <use xlink:href="#TimesNewRomanPSMT-32" x="75"/>
       <use xlink:href="#TimesNewRomanPSMT-35" x="125"/>
      </g>
     </g>
    </g>
    <g id="ytick_7">
     <g id="line2d_33">
      <path d="M 57.6 108 
L 414.72 108 
" clip-path="url(#pb80c7eaf45)" style="fill: none; stroke-dasharray: 2.96,1.28; stroke-dashoffset: 0; stroke: #b0b0b0; stroke-opacity: 0.5; stroke-width: 0.8"/>
     </g>
     <g id="line2d_34">
      <g>
       <use xlink:href="#mb1785ce493" x="57.6" y="108" style="stroke: #000000; stroke-width: 0.8"/>
      </g>
     </g>
     <g id="text_18">
      <!-- 1.50 -->
      <g transform="translate(33.1 111.471875) scale(0.1 -0.1)">
       <use xlink:href="#TimesNewRomanPSMT-31"/>
       <use xlink:href="#TimesNewRomanPSMT-2e" x="50"/>
       <use xlink:href="#TimesNewRomanPSMT-35" x="75"/>
       <use xlink:href="#TimesNewRomanPSMT-30" x="125"/>
      </g>
     </g>
    </g>
    <g id="ytick_8">
     <g id="line2d_35">
      <path d="M 57.6 74.736 
L 414.72 74.736 
" clip-path="url(#pb80c7eaf45)" style="fill: none; stroke-dasharray: 2.96,1.28; stroke-dashoffset: 0; stroke: #b0b0b0; stroke-opacity: 0.5; stroke-width: 0.8"/>
     </g>
     <g id="line2d_36">
      <g>
       <use xlink:href="#mb1785ce493" x="57.6" y="74.736" style="stroke: #000000; stroke-width: 0.8"/>
      </g>
     </g>
     <g id="text_19">
      <!-- 1.75 -->
      <g transform="translate(33.1 78.207875) scale(0.1 -0.1)">
       <use xlink:href="#TimesNewRomanPSMT-31"/>
       <use xlink:href="#TimesNewRomanPSMT-2e" x="50"/>
       <use xlink:href="#TimesNewRomanPSMT-37" x="75"/>
       <use xlink:href="#TimesNewRomanPSMT-35" x="125"/>
      </g>
     </g>
    </g>
    <g id="ytick_9">
     <g id="line2d_37">
      <path d="M 57.6 41.472 
L 414.72 41.472 
" clip-path="url(#pb80c7eaf45)" style="fill: none; stroke-dasharray: 2.96,1.28; stroke-dashoffset: 0; stroke: #b0b0b0; stroke-opacity: 0.5; stroke-width: 0.8"/>
     </g>
     <g id="line2d_38">
      <g>
       <use xlink:href="#mb1785ce493" x="57.6" y="41.472" style="stroke: #000000; stroke-width: 0.8"/>
      </g>
     </g>
     <g id="text_20">
      <!-- 2.00 -->
      <g transform="translate(33.1 44.943875) scale(0.1 -0.1)">
       <use xlink:href="#TimesNewRomanPSMT-32"/>
       <use xlink:href="#TimesNewRomanPSMT-2e" x="50"/>
       <use xlink:href="#TimesNewRomanPSMT-30" x="75"/>
       <use xlink:href="#TimesNewRomanPSMT-30" x="125"/>
      </g>
     </g>
    </g>
    <g id="text_21">
     <!-- DETECTION (TRUE/FALSE) -->
     <g transform="translate(26.960938 236.510031) rotate(-90) scale(0.1 -0.1)">
      <defs>
       <path id="TimesNewRomanPSMT-44" d="M 109 0 
L 109 116 
L 269 116 
Q 538 116 650 288 
Q 719 391 719 750 
L 719 3488 
Q 719 3884 631 3984 
Q 509 4122 269 4122 
L 109 4122 
L 109 4238 
L 1834 4238 
Q 2784 4238 3279 4022 
Q 3775 3806 4076 3303 
Q 4378 2800 4378 2141 
Q 4378 1256 3841 663 
Q 3238 0 2003 0 
L 109 0 
z
M 1319 306 
Q 1716 219 1984 219 
Q 2709 219 3187 728 
Q 3666 1238 3666 2109 
Q 3666 2988 3187 3494 
Q 2709 4000 1959 4000 
Q 1678 4000 1319 3909 
L 1319 306 
z
" transform="scale(0.015625)"/>
       <path id="TimesNewRomanPSMT-4f" d="M 2341 4334 
Q 3166 4334 3770 3707 
Q 4375 3081 4375 2144 
Q 4375 1178 3765 540 
Q 3156 -97 2291 -97 
Q 1416 -97 820 525 
Q 225 1147 225 2134 
Q 225 3144 913 3781 
Q 1509 4334 2341 4334 
z
M 2281 4106 
Q 1713 4106 1369 3684 
Q 941 3159 941 2147 
Q 941 1109 1384 550 
Q 1725 125 2284 125 
Q 2881 125 3270 590 
Q 3659 1056 3659 2059 
Q 3659 3147 3231 3681 
Q 2888 4106 2281 4106 
z
" transform="scale(0.015625)"/>
       <path id="TimesNewRomanPSMT-4e" d="M -84 4238 
L 1066 4238 
L 3656 1059 
L 3656 3503 
Q 3656 3894 3569 3991 
Q 3453 4122 3203 4122 
L 3056 4122 
L 3056 4238 
L 4531 4238 
L 4531 4122 
L 4381 4122 
Q 4113 4122 4000 3959 
Q 3931 3859 3931 3503 
L 3931 -69 
L 3819 -69 
L 1025 3344 
L 1025 734 
Q 1025 344 1109 247 
Q 1228 116 1475 116 
L 1625 116 
L 1625 0 
L 150 0 
L 150 116 
L 297 116 
Q 569 116 681 278 
Q 750 378 750 734 
L 750 3681 
Q 566 3897 470 3965 
Q 375 4034 191 4094 
Q 100 4122 -84 4122 
L -84 4238 
z
" transform="scale(0.015625)"/>
       <path id="TimesNewRomanPSMT-52" d="M 4325 0 
L 3194 0 
L 1759 1981 
Q 1600 1975 1500 1975 
Q 1459 1975 1412 1976 
Q 1366 1978 1316 1981 
L 1316 750 
Q 1316 350 1403 253 
Q 1522 116 1759 116 
L 1925 116 
L 1925 0 
L 109 0 
L 109 116 
L 269 116 
Q 538 116 653 291 
Q 719 388 719 750 
L 719 3488 
Q 719 3888 631 3984 
Q 509 4122 269 4122 
L 109 4122 
L 109 4238 
L 1653 4238 
Q 2328 4238 2648 4139 
Q 2969 4041 3192 3777 
Q 3416 3513 3416 3147 
Q 3416 2756 3161 2468 
Q 2906 2181 2372 2063 
L 3247 847 
Q 3547 428 3762 290 
Q 3978 153 4325 116 
L 4325 0 
z
M 1316 2178 
Q 1375 2178 1419 2176 
Q 1463 2175 1491 2175 
Q 2097 2175 2405 2437 
Q 2713 2700 2713 3106 
Q 2713 3503 2464 3751 
Q 2216 4000 1806 4000 
Q 1625 4000 1316 3941 
L 1316 2178 
z
" transform="scale(0.015625)"/>
       <path id="TimesNewRomanPSMT-55" d="M 3053 4122 
L 3053 4238 
L 4553 4238 
L 4553 4122 
L 4394 4122 
Q 4144 4122 4009 3913 
Q 3944 3816 3944 3463 
L 3944 1744 
Q 3944 1106 3817 754 
Q 3691 403 3320 151 
Q 2950 -100 2313 -100 
Q 1619 -100 1259 140 
Q 900 381 750 788 
Q 650 1066 650 1831 
L 650 3488 
Q 650 3878 542 4000 
Q 434 4122 194 4122 
L 34 4122 
L 34 4238 
L 1866 4238 
L 1866 4122 
L 1703 4122 
Q 1441 4122 1328 3956 
Q 1250 3844 1250 3488 
L 1250 1641 
Q 1250 1394 1295 1075 
Q 1341 756 1459 578 
Q 1578 400 1801 284 
Q 2025 169 2350 169 
Q 2766 169 3094 350 
Q 3422 531 3542 814 
Q 3663 1097 3663 1772 
L 3663 3488 
Q 3663 3884 3575 3984 
Q 3453 4122 3213 4122 
L 3053 4122 
z
" transform="scale(0.015625)"/>
       <path id="TimesNewRomanPSMT-2f" d="M 1794 4444 
L 259 -88 
L 9 -88 
L 1544 4444 
L 1794 4444 
z
" transform="scale(0.015625)"/>
       <path id="TimesNewRomanPSMT-46" d="M 1309 4006 
L 1309 2341 
L 2081 2341 
Q 2347 2341 2470 2458 
Q 2594 2575 2634 2922 
L 2750 2922 
L 2750 1488 
L 2634 1488 
Q 2631 1734 2570 1850 
Q 2509 1966 2401 2023 
Q 2294 2081 2081 2081 
L 1309 2081 
L 1309 750 
Q 1309 428 1350 325 
Q 1381 247 1481 191 
Q 1619 116 1769 116 
L 1922 116 
L 1922 0 
L 103 0 
L 103 116 
L 253 116 
Q 516 116 634 269 
Q 709 369 709 750 
L 709 3488 
Q 709 3809 669 3913 
Q 638 3991 541 4047 
Q 406 4122 253 4122 
L 103 4122 
L 103 4238 
L 3256 4238 
L 3297 3306 
L 3188 3306 
Q 3106 3603 2998 3742 
Q 2891 3881 2733 3943 
Q 2575 4006 2244 4006 
L 1309 4006 
z
" transform="scale(0.015625)"/>
       <path id="TimesNewRomanPSMT-41" d="M 2928 1419 
L 1288 1419 
L 1000 750 
Q 894 503 894 381 
Q 894 284 986 211 
Q 1078 138 1384 116 
L 1384 0 
L 50 0 
L 50 116 
Q 316 163 394 238 
Q 553 388 747 847 
L 2238 4334 
L 2347 4334 
L 3822 809 
Q 4000 384 4145 257 
Q 4291 131 4550 116 
L 4550 0 
L 2878 0 
L 2878 116 
Q 3131 128 3220 200 
Q 3309 272 3309 375 
Q 3309 513 3184 809 
L 2928 1419 
z
M 2841 1650 
L 2122 3363 
L 1384 1650 
L 2841 1650 
z
" transform="scale(0.015625)"/>
       <path id="TimesNewRomanPSMT-4c" d="M 3669 1172 
L 3772 1150 
L 3409 0 
L 128 0 
L 128 116 
L 288 116 
Q 556 116 672 291 
Q 738 391 738 753 
L 738 3488 
Q 738 3884 650 3984 
Q 528 4122 288 4122 
L 128 4122 
L 128 4238 
L 2047 4238 
L 2047 4122 
Q 1709 4125 1573 4059 
Q 1438 3994 1388 3894 
Q 1338 3794 1338 3416 
L 1338 753 
Q 1338 494 1388 397 
Q 1425 331 1503 300 
Q 1581 269 1991 269 
L 2300 269 
Q 2788 269 2984 341 
Q 3181 413 3343 595 
Q 3506 778 3669 1172 
z
" transform="scale(0.015625)"/>
      </defs>
      <use xlink:href="#TimesNewRomanPSMT-44"/>
      <use xlink:href="#TimesNewRomanPSMT-45" x="72.216797"/>
      <use xlink:href="#TimesNewRomanPSMT-54" x="133.300781"/>
      <use xlink:href="#TimesNewRomanPSMT-45" x="194.384766"/>
      <use xlink:href="#TimesNewRomanPSMT-43" x="255.46875"/>
      <use xlink:href="#TimesNewRomanPSMT-54" x="322.167969"/>
      <use xlink:href="#TimesNewRomanPSMT-49" x="383.251953"/>
      <use xlink:href="#TimesNewRomanPSMT-4f" x="416.552734"/>
      <use xlink:href="#TimesNewRomanPSMT-4e" x="488.769531"/>
      <use xlink:href="#TimesNewRomanPSMT-20" x="560.986328"/>
      <use xlink:href="#TimesNewRomanPSMT-28" x="585.986328"/>
      <use xlink:href="#TimesNewRomanPSMT-54" x="619.287109"/>
      <use xlink:href="#TimesNewRomanPSMT-52" x="680.371094"/>
      <use xlink:href="#TimesNewRomanPSMT-55" x="747.070312"/>
      <use xlink:href="#TimesNewRomanPSMT-45" x="819.287109"/>
      <use xlink:href="#TimesNewRomanPSMT-2f" x="880.371094"/>
      <use xlink:href="#TimesNewRomanPSMT-46" x="908.154297"/>
      <use xlink:href="#TimesNewRomanPSMT-41" x="956.394531"/>
      <use xlink:href="#TimesNewRomanPSMT-4c" x="1028.611328"/>
      <use xlink:href="#TimesNewRomanPSMT-53" x="1089.695312"/>
      <use xlink:href="#TimesNewRomanPSMT-45" x="1145.310547"/>
      <use xlink:href="#TimesNewRomanPSMT-29" x="1206.394531"/>
     </g>
    </g>
   </g>
   <g id="line2d_39">
    <path d="M 119.104 161.2224 
L 178.624 161.2224 
" clip-path="url(#pb80c7eaf45)" style="fill: none; stroke: #000000; stroke-width: 1.5; stroke-linecap: square"/>
   </g>
   <g id="line2d_40">
    <path d="M 119.104 167.8752 
L 119.104 154.5696 
" clip-path="url(#pb80c7eaf45)" style="fill: none; stroke: #000000; stroke-width: 1.5; stroke-linecap: square"/>
   </g>
   <g id="line2d_41">
    <path d="M 178.624 167.8752 
L 178.624 154.5696 
" clip-path="url(#pb80c7eaf45)" style="fill: none; stroke: #000000; stroke-width: 1.5; stroke-linecap: square"/>
   </g>
   <g id="line2d_42">
    <path d="M 285.76 161.2224 
L 338.5344 161.2224 
" clip-path="url(#pb80c7eaf45)" style="fill: none; stroke: #000000; stroke-width: 1.5; stroke-linecap: square"/>
   </g>
   <g id="line2d_43">
    <path d="M 285.76 167.8752 
L 285.76 154.5696 
" clip-path="url(#pb80c7eaf45)" style="fill: none; stroke: #000000; stroke-width: 1.5; stroke-linecap: square"/>
   </g>
   <g id="line2d_44">
    <path d="M 338.5344 167.8752 
L 338.5344 154.5696 
" clip-path="url(#pb80c7eaf45)" style="fill: none; stroke: #000000; stroke-width: 1.5; stroke-linecap: square"/>
   </g>
   <g id="patch_3">
    <path d="M 57.6 307.584 
L 57.6 41.472 
" style="fill: none; stroke: #000000; stroke-width: 0.8; stroke-linejoin: miter; stroke-linecap: square"/>
   </g>
   <g id="patch_4">
    <path d="M 414.72 307.584 
L 414.72 41.472 
" style="fill: none; stroke: #000000; stroke-width: 0.8; stroke-linejoin: miter; stroke-linecap: square"/>
   </g>
   <g id="patch_5">
    <path d="M 57.6 307.584 
L 414.72 307.584 
" style="fill: none; stroke: #000000; stroke-width: 0.8; stroke-linejoin: miter; stroke-linecap: square"/>
   </g>
   <g id="patch_6">
    <path d="M 57.6 41.472 
L 414.72 41.472 
" style="fill: none; stroke: #000000; stroke-width: 0.8; stroke-linejoin: miter; stroke-linecap: square"/>
   </g>
   <g id="text_22">
    <!-- Ideal -->
    <g transform="translate(134.976 155.641384) scale(0.1 -0.1)">
     <defs>
      <path id="TimesNewRomanPSMT-64" d="M 2222 322 
Q 2013 103 1813 7 
Q 1613 -88 1381 -88 
Q 913 -88 563 304 
Q 213 697 213 1313 
Q 213 1928 600 2439 
Q 988 2950 1597 2950 
Q 1975 2950 2222 2709 
L 2222 3238 
Q 2222 3728 2198 3840 
Q 2175 3953 2125 3993 
Q 2075 4034 2000 4034 
Q 1919 4034 1784 3984 
L 1744 4094 
L 2597 4444 
L 2738 4444 
L 2738 1134 
Q 2738 631 2761 520 
Q 2784 409 2836 365 
Q 2888 322 2956 322 
Q 3041 322 3181 375 
L 3216 266 
L 2366 -88 
L 2222 -88 
L 2222 322 
z
M 2222 541 
L 2222 2016 
Q 2203 2228 2109 2403 
Q 2016 2578 1861 2667 
Q 1706 2756 1559 2756 
Q 1284 2756 1069 2509 
Q 784 2184 784 1559 
Q 784 928 1059 592 
Q 1334 256 1672 256 
Q 1956 256 2222 541 
z
" transform="scale(0.015625)"/>
      <path id="TimesNewRomanPSMT-65" d="M 681 1784 
Q 678 1147 991 784 
Q 1303 422 1725 422 
Q 2006 422 2214 576 
Q 2422 731 2563 1106 
L 2659 1044 
Q 2594 616 2278 264 
Q 1963 -88 1488 -88 
Q 972 -88 605 314 
Q 238 716 238 1394 
Q 238 2128 614 2539 
Q 991 2950 1559 2950 
Q 2041 2950 2350 2633 
Q 2659 2316 2659 1784 
L 681 1784 
z
M 681 1966 
L 2006 1966 
Q 1991 2241 1941 2353 
Q 1863 2528 1708 2628 
Q 1553 2728 1384 2728 
Q 1125 2728 920 2526 
Q 716 2325 681 1966 
z
" transform="scale(0.015625)"/>
      <path id="TimesNewRomanPSMT-61" d="M 1822 413 
Q 1381 72 1269 19 
Q 1100 -59 909 -59 
Q 613 -59 420 144 
Q 228 347 228 678 
Q 228 888 322 1041 
Q 450 1253 767 1440 
Q 1084 1628 1822 1897 
L 1822 2009 
Q 1822 2438 1686 2597 
Q 1550 2756 1291 2756 
Q 1094 2756 978 2650 
Q 859 2544 859 2406 
L 866 2225 
Q 866 2081 792 2003 
Q 719 1925 600 1925 
Q 484 1925 411 2006 
Q 338 2088 338 2228 
Q 338 2497 613 2722 
Q 888 2947 1384 2947 
Q 1766 2947 2009 2819 
Q 2194 2722 2281 2516 
Q 2338 2381 2338 1966 
L 2338 994 
Q 2338 584 2353 492 
Q 2369 400 2405 369 
Q 2441 338 2488 338 
Q 2538 338 2575 359 
Q 2641 400 2828 588 
L 2828 413 
Q 2478 -56 2159 -56 
Q 2006 -56 1915 50 
Q 1825 156 1822 413 
z
M 1822 616 
L 1822 1706 
Q 1350 1519 1213 1441 
Q 966 1303 859 1153 
Q 753 1003 753 825 
Q 753 600 887 451 
Q 1022 303 1197 303 
Q 1434 303 1822 616 
z
" transform="scale(0.015625)"/>
      <path id="TimesNewRomanPSMT-6c" d="M 1184 4444 
L 1184 647 
Q 1184 378 1223 290 
Q 1263 203 1344 158 
Q 1425 113 1647 113 
L 1647 0 
L 244 0 
L 244 113 
Q 441 113 512 153 
Q 584 194 625 287 
Q 666 381 666 647 
L 666 3247 
Q 666 3731 644 3842 
Q 622 3953 573 3993 
Q 525 4034 450 4034 
Q 369 4034 244 3984 
L 191 4094 
L 1044 4444 
L 1184 4444 
z
" transform="scale(0.015625)"/>
     </defs>
     <use xlink:href="#TimesNewRomanPSMT-49"/>
     <use xlink:href="#TimesNewRomanPSMT-64" x="33.300781"/>
     <use xlink:href="#TimesNewRomanPSMT-65" x="83.300781"/>
     <use xlink:href="#TimesNewRomanPSMT-61" x="127.685547"/>
     <use xlink:href="#TimesNewRomanPSMT-6c" x="172.070312"/>
    </g>
   </g>
   <g id="text_23">
    <!-- Condition -->
    <g transform="translate(131.008 171.608104) scale(0.1 -0.1)">
     <defs>
      <path id="TimesNewRomanPSMT-6f" d="M 1600 2947 
Q 2250 2947 2644 2453 
Q 2978 2031 2978 1484 
Q 2978 1100 2793 706 
Q 2609 313 2286 112 
Q 1963 -88 1566 -88 
Q 919 -88 538 428 
Q 216 863 216 1403 
Q 216 1797 411 2186 
Q 606 2575 925 2761 
Q 1244 2947 1600 2947 
z
M 1503 2744 
Q 1338 2744 1170 2645 
Q 1003 2547 900 2300 
Q 797 2053 797 1666 
Q 797 1041 1045 587 
Q 1294 134 1700 134 
Q 2003 134 2200 384 
Q 2397 634 2397 1244 
Q 2397 2006 2069 2444 
Q 1847 2744 1503 2744 
z
" transform="scale(0.015625)"/>
      <path id="TimesNewRomanPSMT-6e" d="M 1034 2341 
Q 1538 2947 1994 2947 
Q 2228 2947 2397 2830 
Q 2566 2713 2666 2444 
Q 2734 2256 2734 1869 
L 2734 647 
Q 2734 375 2778 278 
Q 2813 200 2889 156 
Q 2966 113 3172 113 
L 3172 0 
L 1756 0 
L 1756 113 
L 1816 113 
Q 2016 113 2095 173 
Q 2175 234 2206 353 
Q 2219 400 2219 647 
L 2219 1819 
Q 2219 2209 2117 2386 
Q 2016 2563 1775 2563 
Q 1403 2563 1034 2156 
L 1034 647 
Q 1034 356 1069 288 
Q 1113 197 1189 155 
Q 1266 113 1500 113 
L 1500 0 
L 84 0 
L 84 113 
L 147 113 
Q 366 113 442 223 
Q 519 334 519 647 
L 519 1709 
Q 519 2225 495 2337 
Q 472 2450 423 2490 
Q 375 2531 294 2531 
Q 206 2531 84 2484 
L 38 2597 
L 900 2947 
L 1034 2947 
L 1034 2341 
z
" transform="scale(0.015625)"/>
      <path id="TimesNewRomanPSMT-69" d="M 928 4444 
Q 1059 4444 1151 4351 
Q 1244 4259 1244 4128 
Q 1244 3997 1151 3903 
Q 1059 3809 928 3809 
Q 797 3809 703 3903 
Q 609 3997 609 4128 
Q 609 4259 701 4351 
Q 794 4444 928 4444 
z
M 1188 2947 
L 1188 647 
Q 1188 378 1227 289 
Q 1266 200 1342 156 
Q 1419 113 1622 113 
L 1622 0 
L 231 0 
L 231 113 
Q 441 113 512 153 
Q 584 194 626 287 
Q 669 381 669 647 
L 669 1750 
Q 669 2216 641 2353 
Q 619 2453 572 2492 
Q 525 2531 444 2531 
Q 356 2531 231 2484 
L 188 2597 
L 1050 2947 
L 1188 2947 
z
" transform="scale(0.015625)"/>
      <path id="TimesNewRomanPSMT-74" d="M 1031 3803 
L 1031 2863 
L 1700 2863 
L 1700 2644 
L 1031 2644 
L 1031 788 
Q 1031 509 1111 412 
Q 1191 316 1316 316 
Q 1419 316 1516 380 
Q 1613 444 1666 569 
L 1788 569 
Q 1678 263 1478 108 
Q 1278 -47 1066 -47 
Q 922 -47 784 33 
Q 647 113 581 261 
Q 516 409 516 719 
L 516 2644 
L 63 2644 
L 63 2747 
Q 234 2816 414 2980 
Q 594 3144 734 3369 
Q 806 3488 934 3803 
L 1031 3803 
z
" transform="scale(0.015625)"/>
     </defs>
     <use xlink:href="#TimesNewRomanPSMT-43"/>
     <use xlink:href="#TimesNewRomanPSMT-6f" x="66.699219"/>
     <use xlink:href="#TimesNewRomanPSMT-6e" x="116.699219"/>
     <use xlink:href="#TimesNewRomanPSMT-64" x="166.699219"/>
     <use xlink:href="#TimesNewRomanPSMT-69" x="216.699219"/>
     <use xlink:href="#TimesNewRomanPSMT-74" x="244.482422"/>
     <use xlink:href="#TimesNewRomanPSMT-69" x="272.265625"/>
     <use xlink:href="#TimesNewRomanPSMT-6f" x="300.048828"/>
     <use xlink:href="#TimesNewRomanPSMT-6e" x="350.048828"/>
    </g>
   </g>
   <g id="text_24">
    <!-- Detected -->
    <g transform="translate(295.68 155.641384) scale(0.1 -0.1)">
     <defs>
      <path id="TimesNewRomanPSMT-63" d="M 2631 1088 
Q 2516 522 2178 217 
Q 1841 -88 1431 -88 
Q 944 -88 581 321 
Q 219 731 219 1428 
Q 219 2103 620 2525 
Q 1022 2947 1584 2947 
Q 2006 2947 2278 2723 
Q 2550 2500 2550 2259 
Q 2550 2141 2473 2067 
Q 2397 1994 2259 1994 
Q 2075 1994 1981 2113 
Q 1928 2178 1911 2362 
Q 1894 2547 1784 2644 
Q 1675 2738 1481 2738 
Q 1169 2738 978 2506 
Q 725 2200 725 1697 
Q 725 1184 976 792 
Q 1228 400 1656 400 
Q 1963 400 2206 609 
Q 2378 753 2541 1131 
L 2631 1088 
z
" transform="scale(0.015625)"/>
     </defs>
     <use xlink:href="#TimesNewRomanPSMT-44"/>
     <use xlink:href="#TimesNewRomanPSMT-65" x="72.216797"/>
     <use xlink:href="#TimesNewRomanPSMT-74" x="116.601562"/>
     <use xlink:href="#TimesNewRomanPSMT-65" x="144.384766"/>
     <use xlink:href="#TimesNewRomanPSMT-63" x="188.769531"/>
     <use xlink:href="#TimesNewRomanPSMT-74" x="233.154297"/>
     <use xlink:href="#TimesNewRomanPSMT-65" x="260.9375"/>
     <use xlink:href="#TimesNewRomanPSMT-64" x="305.322266"/>
    </g>
   </g>
   <g id="text_25">
    <!-- Condition -->
    <g transform="translate(295.68 171.608104) scale(0.1 -0.1)">
     <use xlink:href="#TimesNewRomanPSMT-43"/>
     <use xlink:href="#TimesNewRomanPSMT-6f" x="66.699219"/>
     <use xlink:href="#TimesNewRomanPSMT-6e" x="116.699219"/>
     <use xlink:href="#TimesNewRomanPSMT-64" x="166.699219"/>
     <use xlink:href="#TimesNewRomanPSMT-69" x="216.699219"/>
     <use xlink:href="#TimesNewRomanPSMT-74" x="244.482422"/>
     <use xlink:href="#TimesNewRomanPSMT-69" x="272.265625"/>
     <use xlink:href="#TimesNewRomanPSMT-6f" x="300.048828"/>
     <use xlink:href="#TimesNewRomanPSMT-6e" x="350.048828"/>
    </g>
   </g>
   <g id="text_26">
    <!-- Detection Chart -->
    <g transform="translate(198.005625 35.472) scale(0.12 -0.12)">
     <defs>
      <path id="TimesNewRomanPSMT-68" d="M 1041 4444 
L 1041 2350 
Q 1388 2731 1591 2839 
Q 1794 2947 1997 2947 
Q 2241 2947 2416 2812 
Q 2591 2678 2675 2391 
Q 2734 2191 2734 1659 
L 2734 647 
Q 2734 375 2778 275 
Q 2809 200 2884 156 
Q 2959 113 3159 113 
L 3159 0 
L 1753 0 
L 1753 113 
L 1819 113 
Q 2019 113 2097 173 
Q 2175 234 2206 353 
Q 2216 403 2216 647 
L 2216 1659 
Q 2216 2128 2167 2275 
Q 2119 2422 2012 2495 
Q 1906 2569 1756 2569 
Q 1603 2569 1437 2487 
Q 1272 2406 1041 2159 
L 1041 647 
Q 1041 353 1073 281 
Q 1106 209 1195 161 
Q 1284 113 1503 113 
L 1503 0 
L 84 0 
L 84 113 
Q 275 113 384 172 
Q 447 203 484 290 
Q 522 378 522 647 
L 522 3238 
Q 522 3728 498 3840 
Q 475 3953 426 3993 
Q 378 4034 297 4034 
Q 231 4034 84 3984 
L 41 4094 
L 897 4444 
L 1041 4444 
z
" transform="scale(0.015625)"/>
      <path id="TimesNewRomanPSMT-72" d="M 1038 2947 
L 1038 2303 
Q 1397 2947 1775 2947 
Q 1947 2947 2059 2842 
Q 2172 2738 2172 2600 
Q 2172 2478 2090 2393 
Q 2009 2309 1897 2309 
Q 1788 2309 1652 2417 
Q 1516 2525 1450 2525 
Q 1394 2525 1328 2463 
Q 1188 2334 1038 2041 
L 1038 669 
Q 1038 431 1097 309 
Q 1138 225 1241 169 
Q 1344 113 1538 113 
L 1538 0 
L 72 0 
L 72 113 
Q 291 113 397 181 
Q 475 231 506 341 
Q 522 394 522 644 
L 522 1753 
Q 522 2253 501 2348 
Q 481 2444 426 2487 
Q 372 2531 291 2531 
Q 194 2531 72 2484 
L 41 2597 
L 906 2947 
L 1038 2947 
z
" transform="scale(0.015625)"/>
     </defs>
     <use xlink:href="#TimesNewRomanPSMT-44"/>
     <use xlink:href="#TimesNewRomanPSMT-65" x="72.216797"/>
     <use xlink:href="#TimesNewRomanPSMT-74" x="116.601562"/>
     <use xlink:href="#TimesNewRomanPSMT-65" x="144.384766"/>
     <use xlink:href="#TimesNewRomanPSMT-63" x="188.769531"/>
     <use xlink:href="#TimesNewRomanPSMT-74" x="233.154297"/>
     <use xlink:href="#TimesNewRomanPSMT-69" x="260.9375"/>
     <use xlink:href="#TimesNewRomanPSMT-6f" x="288.720703"/>
     <use xlink:href="#TimesNewRomanPSMT-6e" x="338.720703"/>
     <use xlink:href="#TimesNewRomanPSMT-20" x="388.720703"/>
     <use xlink:href="#TimesNewRomanPSMT-43" x="413.720703"/>
     <use xlink:href="#TimesNewRomanPSMT-68" x="480.419922"/>
     <use xlink:href="#TimesNewRomanPSMT-61" x="530.419922"/>
     <use xlink:href="#TimesNewRomanPSMT-72" x="574.804688"/>
     <use xlink:href="#TimesNewRomanPSMT-74" x="608.105469"/>
    </g>
   </g>
  </g>
 </g>
 <defs>
  <clipPath id="pb80c7eaf45">
   <rect x="57.6" y="41.472" width="357.12" height="266.112"/>
  </clipPath>
 </defs>
</svg>
